<?xml version="1.0" standalone="no"?>
<!DOCTYPE svg PUBLIC "-//W3C//DTD SVG 20010904//EN"
 "http://www.w3.org/TR/2001/REC-SVG-20010904/DTD/svg10.dtd">
<svg version="1.0" xmlns="http://www.w3.org/2000/svg"
 width="768.000000pt" height="1024.000000pt" viewBox="0 0 768.000000 1024.000000"
 preserveAspectRatio="xMidYMid meet">
<metadata>
Created by potrace 1.16, written by Peter Selinger 2001-2019
</metadata>
<g transform="translate(0.000000,1024.000000) scale(0.100000,-0.100000)"
fill="#000000" stroke="none">
<path d="M7157 7270 c8 -36 21 -78 29 -93 8 -16 14 -32 14 -37 0 -5 18 -48 41
-97 77 -165 87 -188 109 -253 13 -36 42 -116 66 -178 42 -107 74 -219 73 -252
0 -10 -2 -11 -6 -2 -8 20 -25 14 -18 -7 3 -11 10 -54 15 -98 8 -69 7 -80 -9
-93 -16 -14 -13 -19 51 -82 37 -37 68 -64 68 -61 0 4 -7 27 -16 50 -9 24 -14
46 -11 49 12 12 46 -18 55 -48 19 -62 20 -77 6 -88 -10 -9 -20 -5 -43 19 -17
17 -35 31 -41 31 -5 0 -10 7 -10 15 0 8 -4 15 -8 15 -5 0 -22 14 -40 31 -17
17 -36 28 -42 24 -5 -3 -10 1 -10 11 0 13 -3 14 -15 4 -16 -13 -35 -6 -35 15
0 8 -6 12 -14 9 -8 -3 -26 3 -40 13 -26 18 -37 41 -13 27 16 -10 -10 25 -38
49 -11 10 -15 16 -8 13 6 -4 14 -2 18 4 3 5 1 10 -6 10 -7 0 -10 3 -6 6 3 4 0
13 -8 20 -7 8 -15 19 -18 26 -2 7 -8 9 -13 5 -5 -4 -2 -12 6 -17 9 -6 1 -8
-23 -6 -30 3 -35 1 -26 -10 6 -8 15 -12 19 -9 5 3 16 2 25 -1 13 -5 14 -8 3
-15 -10 -6 -4 -16 22 -39 l35 -32 -49 34 c-41 28 -185 153 -236 205 -13 14
-13 14 5 5 11 -6 42 -33 69 -61 27 -27 53 -48 57 -45 11 7 -42 96 -74 123 -16
13 -26 30 -23 38 3 8 1 11 -4 8 -5 -3 -21 6 -35 21 -28 30 -60 27 -50 -6 6
-18 5 -19 -22 -5 -15 8 -38 15 -51 15 -12 0 -75 30 -138 66 -100 57 -200 101
-210 91 -4 -4 93 -85 127 -107 13 -8 36 -27 52 -42 26 -26 27 -29 14 -55 -8
-15 -18 -43 -22 -61 -6 -29 -10 -33 -28 -27 -12 4 -51 14 -87 22 -68 17 -86
32 -122 98 -21 40 -82 104 -102 107 -6 0 -22 1 -36 2 -16 1 -29 9 -35 24 -16
35 -26 26 -23 -20 3 -36 6 -43 24 -43 25 -1 54 -22 54 -39 0 -6 14 -17 31 -25
18 -8 43 -33 58 -57 14 -23 36 -47 48 -53 12 -5 24 -19 28 -30 3 -12 11 -21
16 -21 5 0 9 -5 9 -11 0 -6 9 -18 21 -28 19 -15 19 -18 5 -45 -8 -16 -12 -35
-9 -42 6 -17 2 -17 -31 -4 -14 5 -26 15 -26 23 0 7 -10 21 -22 31 -22 19 -22
20 -3 27 16 6 17 8 3 8 -9 1 -39 28 -68 61 -57 65 -107 99 -107 71 0 -9 14
-30 31 -47 115 -116 141 -146 111 -131 -16 8 -49 37 -72 64 -83 96 -98 110
-120 117 -11 4 -27 13 -33 21 -14 17 -30 20 -30 5 0 -5 18 -19 40 -30 35 -18
39 -24 36 -51 -2 -17 -8 -34 -13 -38 -13 -9 -24 -41 -14 -41 5 0 11 9 14 20 8
32 22 23 22 -15 0 -29 -3 -34 -17 -29 -21 6 -25 -14 -5 -22 8 -3 14 -11 14
-19 0 -18 -9 -19 -26 -2 -10 10 -10 7 0 -15 10 -23 9 -35 -4 -70 -19 -46 -17
-50 15 -52 17 -1 29 -17 57 -83 20 -46 39 -83 43 -83 4 0 23 14 43 31 20 18
38 29 41 27 3 -3 -13 -21 -35 -40 l-41 -35 36 -16 c32 -16 64 -22 64 -13 0 2
-7 16 -15 32 -18 35 -3 61 24 41 61 -44 91 -75 91 -92 0 -18 -5 -20 -34 -17
-20 2 -44 -3 -59 -12 -23 -16 -27 -16 -68 6 -50 25 -59 35 -52 55 4 9 -17 3
-54 -17 -63 -31 -85 -38 -66 -19 9 9 5 20 -14 46 -14 18 -23 36 -20 39 9 10
28 -6 37 -32 11 -28 38 -31 66 -8 16 13 16 15 2 10 -10 -3 -18 -1 -18 4 0 5
-10 14 -21 21 -15 8 -19 8 -15 0 4 -6 2 -11 -3 -11 -6 0 -11 4 -11 8 0 5 -17
16 -38 24 l-39 15 5 -26 c3 -14 8 -31 13 -36 4 -6 5 -16 0 -23 -9 -16 -96 63
-110 101 -12 30 -31 36 -31 9 0 -9 20 -40 45 -69 25 -28 45 -56 45 -62 0 -5
10 -17 22 -25 l22 -16 -20 -21 -21 -21 -43 21 c-24 11 -47 18 -53 14 -6 -4 -7
-1 -3 6 5 8 3 12 -5 10 -37 -5 -57 6 -134 69 -6 5 -19 14 -30 20 -48 27 14 9
82 -24 40 -20 85 -36 99 -36 13 0 22 -3 19 -6 -5 -6 28 -22 74 -37 15 -5 21
-4 17 3 -3 6 -19 13 -34 17 -17 3 -36 18 -47 38 -10 18 -41 62 -67 98 -26 36
-48 71 -48 77 0 7 -12 12 -26 12 -26 0 -26 -5 -7 -57 3 -7 0 -13 -6 -13 -6 0
-11 4 -11 8 0 12 -123 132 -135 132 -7 0 -20 9 -30 20 -18 20 -18 20 36 15
l54 -4 -65 30 c-74 34 -120 46 -120 31 0 -5 16 -13 35 -16 33 -7 45 -19 27
-30 -5 -3 -33 8 -63 23 -65 34 -118 49 -102 29 6 -7 12 -25 15 -40 5 -25 3
-27 -24 -21 -23 5 -27 3 -22 -11 5 -12 2 -15 -10 -10 -17 7 -23 -11 -6 -21 5
-3 6 -13 3 -23 -5 -13 -3 -15 7 -5 17 16 120 -71 120 -102 0 -16 6 -21 25 -21
14 1 25 -3 24 -9 0 -13 -26 -9 -98 12 -31 9 -48 19 -38 21 24 5 22 11 -18 55
-22 25 -39 36 -47 31 -11 -6 -11 -5 0 8 10 13 10 19 -3 32 -20 20 -22 20 -22
1 0 -8 4 -12 9 -9 5 3 6 -5 3 -18 -3 -13 -1 -37 5 -52 16 -44 4 -43 -19 2 -19
37 -28 73 -30 115 -1 10 -6 15 -11 12 -6 -4 -8 -14 -6 -23 3 -10 10 -38 14
-64 l9 -47 -28 15 c-16 8 -32 13 -36 12 -4 -1 -27 11 -51 26 -32 22 -46 26
-54 18 -23 -23 59 -79 99 -66 16 5 15 4 -2 -11 -20 -16 -20 -16 5 -35 14 -11
21 -20 15 -20 -5 0 1 -7 13 -16 16 -11 20 -20 14 -31 -5 -9 -7 -35 -4 -58 2
-23 -2 -60 -9 -81 l-13 -39 -11 40 c-11 37 -10 40 9 47 21 6 21 6 -1 7 -23 1
-32 23 -49 114 -7 40 -19 55 -27 34 -6 -16 16 -145 37 -212 14 -45 14 -51 -1
-67 -21 -23 -25 -23 -41 3 -20 32 -36 259 -18 259 5 0 4 6 -1 13 -14 18 -37
123 -29 135 3 5 -3 12 -13 15 -14 3 -18 0 -15 -12 3 -9 -1 -6 -7 6 -13 24 -57
43 -100 43 -16 0 -29 4 -29 9 0 13 30 22 43 14 7 -4 6 1 -2 11 -10 12 -16 14
-21 5 -11 -17 -40 48 -40 91 0 29 -6 41 -30 58 l-30 23 0 -29 c0 -16 7 -46 15
-65 8 -20 12 -44 9 -54 -5 -14 -4 -15 4 -4 8 11 13 5 22 -25 11 -36 19 -43 90
-77 98 -47 106 -62 114 -217 4 -63 8 -135 10 -159 l4 -44 -36 42 c-19 23 -40
40 -48 37 -14 -6 -66 92 -83 159 -6 22 -17 49 -25 60 -13 17 -13 12 1 -30 8
-27 18 -61 21 -75 3 -14 8 -27 11 -30 12 -11 61 -110 53 -110 -9 0 -31 34 -54
83 -9 20 -21 37 -27 37 -21 0 -16 -27 14 -70 32 -45 49 -80 39 -80 -19 0 -43
24 -49 49 -3 17 -19 45 -36 63 -32 37 -37 58 -12 58 37 0 4 9 -52 14 -47 4
-53 3 -29 -5 40 -11 66 -39 38 -39 -18 -1 -18 -1 1 -16 12 -10 16 -18 9 -21
-6 -2 -35 -22 -64 -43 l-53 -40 -36 39 c-30 33 -42 40 -73 39 -23 0 -42 -7
-50 -16 -10 -14 -10 -15 2 -4 8 6 19 12 25 12 9 0 33 -102 38 -162 1 -12 5
-14 13 -7 8 6 13 3 17 -12 3 -11 10 -18 15 -15 13 8 35 -20 27 -34 -4 -6 1
-18 11 -26 11 -9 13 -12 5 -8 -10 5 -11 1 -6 -16 6 -19 4 -22 -9 -17 -27 11
-8 -42 30 -86 40 -43 42 -51 13 -42 -12 4 -20 3 -18 -1 2 -5 11 -26 19 -46 9
-25 20 -38 33 -38 16 0 18 -5 12 -40 -7 -39 -6 -40 24 -40 33 0 49 -16 32 -33
-8 -8 -11 -8 -11 1 0 7 -5 12 -12 12 -6 0 -3 -9 8 -21 10 -11 19 -28 19 -37 3
-43 6 -52 15 -52 6 0 10 10 10 23 1 21 1 21 15 3 8 -11 26 -32 40 -48 17 -19
21 -28 11 -28 -8 0 -16 5 -18 12 -2 6 -10 8 -17 4 -9 -6 -9 -11 0 -22 9 -11 7
-14 -10 -14 -11 0 -21 3 -21 8 0 4 -19 27 -41 52 l-41 45 7 -170 c4 -94 17
-231 29 -305 24 -147 23 -309 -1 -318 -7 -2 -13 -19 -13 -38 0 -19 -4 -34 -10
-34 -5 0 -10 16 -10 36 0 19 -4 33 -9 30 -5 -4 -7 4 -3 16 4 16 2 19 -8 13 -9
-6 -12 -4 -8 6 3 8 0 23 -7 33 -11 15 -13 12 -8 -26 3 -24 3 -41 0 -38 -12 12
-76 99 -85 116 -10 21 -5 47 8 39 5 -3 7 -12 4 -20 -3 -8 -1 -20 5 -27 7 -7
19 -22 27 -33 15 -19 15 -19 9 5 -4 14 -7 31 -7 37 -1 7 -11 21 -22 32 -24 22
-66 13 -66 -15 0 -23 -24 -12 -28 13 -2 12 -19 38 -38 59 -33 37 -34 37 -21 9
30 -62 46 -106 37 -100 -9 6 -60 112 -60 126 0 22 32 5 68 -36 44 -50 51 -54
49 -26 0 11 -4 18 -7 16 -7 -4 -34 30 -31 39 1 4 -5 14 -14 22 -8 9 -13 20
-10 25 4 5 1 9 -5 9 -14 0 -60 53 -54 62 3 4 19 -2 37 -12 42 -26 57 -25 23 1
-38 30 -32 38 22 33 26 -2 54 -5 62 -5 8 -1 20 -6 27 -11 7 -5 14 -5 18 2 3 5
2 10 -4 10 -5 0 -18 13 -27 29 -10 17 -21 28 -25 25 -20 -12 -37 43 -33 105 3
68 2 65 89 160 42 46 38 46 -31 -1 -23 -15 -45 -28 -48 -28 -11 0 -6 16 12 36
9 10 24 28 32 39 13 17 13 18 0 10 -8 -4 4 12 27 36 39 40 41 45 20 44 -13 -1
-30 -5 -38 -9 -7 -4 2 6 21 23 40 35 23 42 -30 11 -111 -63 -150 -71 -147 -31
1 21 17 30 17 10 0 -6 15 1 33 15 80 66 91 76 75 70 -14 -5 -18 -1 -18 20 0
30 -16 27 -66 -11 -38 -28 -44 -29 -44 -3 0 13 10 24 26 30 23 9 24 12 13 27
-8 10 -10 18 -4 20 31 11 59 30 69 48 6 11 16 23 21 27 6 4 0 8 -12 8 -26 0
-29 10 -10 29 10 11 7 12 -18 7 -28 -7 -29 -6 -14 9 24 24 13 65 -17 65 -31 0
-30 11 2 49 28 34 22 42 -10 12 -12 -10 -31 -22 -43 -25 -22 -7 -22 -7 -8 28
8 19 15 41 15 48 -1 18 -30 -22 -30 -40 0 -17 -60 -112 -71 -112 -4 0 -10 6
-12 13 -4 7 -6 6 -6 -4 -1 -9 -17 -29 -36 -45 -19 -15 -35 -34 -35 -42 0 -9
-7 -6 -21 9 -19 23 -20 23 -10 2 14 -28 15 -75 2 -54 -7 11 -10 9 -13 -10 l-4
-24 -11 25 c-15 34 -74 88 -156 144 -68 46 -124 66 -76 28 26 -22 21 -52 -9
-52 -10 0 -41 -11 -68 -25 -100 -51 -315 -87 -379 -64 -25 10 -46 9 -91 0 -33
-7 -93 -15 -134 -18 -44 -3 -81 -10 -91 -19 -8 -8 -32 -14 -53 -14 -20 0 -50
-7 -65 -15 -16 -8 -31 -12 -33 -9 -14 13 -105 -65 -130 -111 -33 -60 -34 -65
-8 -72 15 -4 18 -11 14 -33 -4 -15 -1 -37 5 -48 9 -16 6 -23 -15 -38 -45 -34
-121 -178 -139 -266 -4 -18 -26 -76 -50 -128 -24 -53 -53 -126 -65 -163 -13
-38 -26 -64 -32 -61 -6 4 -6 -2 1 -14 7 -13 7 -23 2 -27 -6 -3 -15 4 -21 16
-19 34 -21 16 -5 -31 14 -40 14 -48 -2 -94 -9 -28 -18 -53 -18 -56 -15 -59
-17 -62 -36 -44 -11 9 -19 20 -19 24 0 4 -21 29 -46 56 -50 53 -45 37 17 -59
21 -33 39 -67 39 -75 0 -9 -13 4 -30 29 -31 47 -71 91 -138 152 -51 46 -61 47
-30 5 29 -43 30 -43 85 -113 27 -33 60 -76 75 -96 l27 -36 -32 -54 c-18 -29
-47 -62 -66 -73 -19 -11 -32 -15 -28 -9 9 15 -2 43 -17 43 -15 -1 -56 -36 -56
-49 0 -21 -19 -10 -55 32 -31 35 -35 38 -26 15 13 -34 9 -34 -29 -6 -36 26
-51 18 -18 -10 12 -11 37 -32 53 -47 29 -26 30 -26 5 -20 -25 6 -25 6 3 -12
15 -10 27 -22 27 -28 0 -22 -19 -38 -39 -32 -12 3 -21 1 -21 -4 0 -5 5 -9 10
-9 6 0 10 -4 10 -10 0 -17 -22 -11 -75 21 -45 27 -51 35 -52 65 -1 19 3 34 8
34 4 0 6 -7 3 -15 -5 -13 -2 -14 19 -6 18 7 27 7 31 -2 2 -7 5 -3 5 9 1 30
-10 36 -26 16 -8 -9 -12 -11 -8 -4 3 6 2 12 -3 12 -5 0 -12 10 -16 22 -4 18
-8 20 -18 10 -19 -19 -64 -15 -64 6 0 20 27 26 38 8 4 -6 8 3 8 19 0 17 4 26
8 20 4 -5 14 -11 22 -13 11 -3 10 2 -4 17 -10 11 -22 18 -27 16 -4 -3 -10 -1
-14 5 -3 5 -16 8 -28 6 -12 -3 -25 -5 -29 -5 -5 -1 -8 -6 -8 -12 0 -5 5 -7 10
-4 6 3 10 2 10 -4 0 -5 -10 -13 -22 -17 -13 -4 -28 -14 -35 -23 -7 -9 -13 -13
-14 -8 -1 4 -2 10 -3 15 -4 23 -18 33 -32 21 -10 -8 -14 -8 -14 0 0 17 -27 13
-34 -4 -6 -16 27 -36 72 -44 4 -1 1 -5 -7 -10 -10 -7 -19 -4 -27 7 -12 16 -13
16 -19 0 -4 -10 -11 -18 -16 -18 -4 0 -6 7 -3 15 4 8 2 15 -4 15 -16 0 -21
-38 -11 -75 10 -36 23 -45 33 -22 5 9 7 9 12 0 3 -7 11 -10 19 -7 9 4 15 -4
18 -23 l4 -28 2 31 c0 17 12 48 26 68 14 21 22 42 19 48 -4 7 -2 8 4 4 7 -4
12 -2 12 5 0 7 2 10 5 8 6 -7 -18 -74 -35 -95 -14 -16 -13 -17 3 -11 16 6 18
1 16 -43 -3 -52 6 -75 17 -46 5 13 9 14 20 5 12 -10 13 -8 8 6 -5 12 -1 23 12
33 18 13 17 14 -8 10 -19 -4 -28 -1 -28 8 0 8 4 14 8 14 5 0 7 13 4 29 -3 22
1 32 17 40 16 9 21 9 21 -2 0 -7 -5 -18 -11 -24 -7 -7 -9 -20 -5 -30 7 -16 9
-16 26 7 21 27 26 21 10 -10 -7 -13 -7 -21 0 -25 7 -4 6 -13 -1 -26 -6 -11 -8
-27 -5 -35 9 -23 33 -16 41 13 l6 27 35 -38 c34 -37 43 -53 23 -41 -6 4 -13
-2 -16 -14 -3 -11 -10 -18 -15 -15 -6 4 -8 -1 -4 -13 5 -16 -3 -26 -35 -49
-40 -27 -42 -28 -55 -9 -11 15 -19 17 -41 9 -15 -5 -32 -19 -38 -30 -6 -11
-18 -28 -28 -38 -33 -33 -15 -78 37 -96 19 -6 70 -12 113 -12 43 -1 67 -3 53
-6 -14 -2 -30 -8 -37 -14 -7 -5 -17 -7 -23 -3 -6 4 -22 -1 -36 -10 -15 -9 -35
-14 -46 -12 -14 4 -18 2 -14 -9 3 -8 2 -12 -3 -9 -5 3 -12 1 -16 -4 -3 -6 -12
-8 -19 -5 -18 7 -159 -59 -186 -86 -26 -26 -33 -21 -32 20 0 24 -2 27 -13 17
-8 -8 -10 -18 -4 -29 13 -23 11 -28 -8 -28 -9 0 -25 -7 -35 -17 -13 -11 -18
-12 -18 -3 0 7 -10 1 -21 -14 -12 -15 -39 -34 -60 -42 -21 -9 -41 -24 -44 -34
-4 -11 -20 -20 -47 -24 -46 -8 -78 -22 -78 -36 0 -6 7 -10 15 -10 8 0 15 -4
15 -9 0 -15 -23 -26 -28 -13 -2 6 -9 9 -17 6 -7 -3 -16 0 -20 6 -5 8 -12 5
-22 -9 -8 -12 -25 -21 -39 -21 -13 0 -27 -6 -30 -14 -6 -16 -26 -26 -69 -33
-40 -7 -43 -11 -14 -22 l24 -10 -25 1 c-14 0 -41 -3 -60 -7 -26 -5 -31 -4 -20
4 8 6 10 11 4 11 -5 0 -19 -8 -30 -18 -11 -10 -25 -17 -32 -14 -6 2 -12 -1
-12 -7 0 -6 -3 -10 -8 -9 -18 4 -92 -27 -92 -39 0 -11 -4 -11 -20 -3 -22 12
-44 5 -35 -11 4 -5 -7 -14 -22 -21 -15 -7 -31 -17 -34 -22 -4 -5 -14 -6 -23
-3 -8 3 -18 2 -21 -3 -3 -5 -13 -6 -22 -3 -11 5 -14 3 -8 -6 7 -13 39 -11 78
4 13 6 16 3 11 -8 -3 -9 -18 -17 -32 -19 -15 -2 -27 -9 -27 -17 0 -8 -7 -16
-15 -18 -13 -4 -13 -3 0 6 12 9 10 11 -12 11 -15 0 -33 -6 -41 -14 -7 -8 -25
-16 -38 -18 -13 -2 -23 -9 -21 -16 1 -6 -7 -12 -18 -12 -21 0 -29 20 -7 20 17
1 52 28 44 36 -3 3 -16 -1 -29 -10 -12 -9 -30 -16 -40 -16 -9 0 -38 -20 -64
-45 -49 -48 -60 -54 -50 -29 5 12 2 15 -10 10 -8 -3 -19 -6 -22 -6 -4 0 0 -4
8 -10 12 -7 11 -10 -5 -16 -11 -3 -36 -13 -55 -22 -19 -9 -41 -15 -49 -13 -7
1 -10 -2 -6 -8 3 -7 0 -8 -9 -5 -9 3 -16 1 -16 -5 0 -6 -7 -11 -16 -11 -9 0
-12 -5 -8 -12 5 -8 2 -9 -9 -5 -19 7 -39 0 -106 -38 -24 -14 -52 -25 -62 -25
-12 0 -16 -5 -13 -15 5 -12 -2 -15 -28 -15 -19 0 -38 -4 -44 -9 -5 -5 -69 -34
-141 -66 -122 -53 -166 -80 -110 -68 21 4 21 4 3 -8 -15 -9 -24 -9 -38 0 -17
11 -18 5 -18 -99 0 -100 2 -109 18 -104 16 5 16 5 0 -9 -15 -12 -18 -32 -18
-141 0 -94 3 -126 13 -126 8 0 9 -3 1 -8 -10 -6 -21 -232 -11 -232 2 0 14 9
27 20 13 11 26 17 29 14 3 -3 -9 -19 -28 -35 -19 -16 -33 -31 -30 -34 3 -2 22
9 43 26 20 17 40 28 44 24 4 -3 -2 -11 -12 -17 -10 -6 -32 -23 -47 -38 l-29
-27 0 -297 c1 -303 3 -319 38 -284 7 7 12 9 12 4 0 -14 -30 -37 -40 -31 -6 4
-10 -38 -10 -120 l0 -125 28 6 c15 3 36 8 47 10 20 5 20 5 1 -10 -11 -9 -32
-16 -48 -16 l-28 0 0 -85 c0 -76 2 -84 18 -79 16 5 16 5 0 -6 -21 -13 -24 -50
-5 -50 9 0 9 -2 -1 -8 -9 -7 -12 -63 -10 -246 l3 -237 34 26 c40 29 51 31 51
10 0 -8 -4 -15 -10 -15 -5 0 -10 -4 -10 -9 0 -6 101 -10 245 -10 135 0 243 3
241 7 -2 4 11 12 30 18 19 6 34 7 34 3 0 -5 -7 -9 -15 -9 -8 0 -15 -3 -15 -7
0 -5 81 -9 180 -11 123 -2 180 0 180 8 0 6 -12 15 -27 21 l-28 11 42 19 c23
10 45 24 48 30 13 20 55 29 75 16 25 -15 26 -33 3 -46 -16 -9 -16 -10 -2 -11
9 0 24 -11 33 -25 15 -22 23 -25 81 -25 l65 0 -6 26 c-7 27 -7 27 13 8 11 -10
18 -23 16 -27 -3 -4 126 -7 286 -6 259 2 330 7 274 22 -17 4 -17 5 0 6 10 0
20 -6 23 -14 4 -9 19 -15 35 -15 19 0 29 5 29 15 0 8 5 15 10 15 6 0 10 -4 10
-10 0 -5 5 -10 11 -10 6 0 9 7 5 15 -7 20 4 19 19 -1 11 -15 12 -15 18 5 3 13
1 21 -8 21 -7 0 -15 7 -19 15 -3 9 0 15 9 15 8 0 15 6 15 13 0 8 11 19 24 25
13 6 26 22 29 39 4 15 16 39 27 53 17 21 21 23 30 10 17 -25 11 -37 -20 -44
-19 -3 -30 -12 -30 -22 0 -13 3 -14 15 -4 12 10 15 10 15 -4 0 -22 13 -20 28
5 7 11 19 18 27 15 21 -8 28 10 13 33 -10 16 -9 25 2 46 13 23 19 26 64 23 50
-3 51 -4 51 -35 0 -18 -4 -33 -10 -33 -5 0 -10 6 -10 13 0 16 -16 34 -32 34
-10 0 -9 -5 2 -17 14 -16 14 -18 0 -23 -9 -4 -15 -1 -15 8 0 32 -19 13 -28
-27 -7 -37 -6 -44 10 -52 10 -5 17 -15 14 -21 -6 -16 31 -38 38 -22 3 9 7 9
14 -1 7 -10 11 -10 22 3 12 14 11 18 -1 27 -11 8 -10 9 4 4 10 -3 25 -6 33 -6
19 0 18 -26 -2 -34 -8 -3 -13 -10 -10 -15 3 -5 -3 -20 -14 -34 -11 -14 -20
-27 -20 -30 0 -3 176 -5 391 -6 363 -1 393 0 405 16 13 17 14 17 8 1 -9 -27
56 -24 92 4 15 13 25 17 21 11 -9 -14 22 -33 54 -33 12 0 38 6 57 12 28 10 36
10 39 1 3 -7 9 -13 14 -13 6 0 7 5 4 10 -11 18 25 23 43 7 21 -19 74 -17 80 2
4 11 -5 13 -39 8 -24 -3 -36 -3 -26 0 9 2 17 8 17 12 0 4 15 7 34 8 26 1 33
-3 29 -13 -3 -8 1 -14 11 -14 9 0 16 -4 16 -9 0 -5 30 -8 68 -7 l67 1 0 34 c0
22 6 36 15 39 12 4 13 3 2 -10 -10 -13 -7 -15 28 -13 30 2 40 -1 40 -12 0 -11
-7 -13 -25 -9 -14 4 -25 3 -25 -1 1 -23 22 -30 95 -31 48 -1 74 2 66 7 -7 5
-10 14 -7 20 4 6 0 11 -10 11 -14 0 -15 3 -6 12 16 16 16 62 0 52 -6 -4 -8 -3
-4 4 3 6 2 13 -4 17 -6 4 -2 15 10 27 24 27 25 38 3 38 -15 0 -14 2 3 14 14
10 22 11 32 4 11 -9 11 -13 0 -20 -10 -7 -9 -11 6 -23 10 -7 15 -18 12 -24 -3
-5 1 -16 9 -24 22 -23 18 -37 -10 -37 -31 0 -33 -23 -2 -39 l22 -12 -22 5
c-13 2 -23 1 -23 -3 0 -11 110 -31 168 -31 40 0 50 3 46 14 -3 9 3 17 16 21
15 5 20 13 17 26 -3 10 -1 17 4 13 5 -3 9 -12 9 -20 0 -8 5 -14 10 -14 6 0 10
-5 10 -11 0 -7 -10 -9 -26 -5 -16 4 -23 3 -19 -4 3 -5 23 -9 44 -8 21 0 43 -2
49 -6 7 -4 12 -3 12 3 0 7 8 7 24 1 17 -6 26 -5 29 3 3 9 7 9 19 0 18 -16
1118 -18 1118 -2 0 5 -9 9 -20 9 -11 0 -20 5 -20 10 0 6 9 10 19 10 11 0 27
10 35 22 12 17 19 19 28 10 9 -9 8 -13 -5 -18 -15 -5 -15 -8 1 -30 12 -16 27
-23 50 -24 17 0 32 5 32 10 0 7 6 7 19 0 11 -5 45 -10 76 -10 54 0 55 1 44 21
-8 16 -8 23 1 29 9 6 9 9 -1 12 -8 3 -10 9 -6 14 4 5 12 3 16 -4 4 -7 15 -10
24 -6 20 7 22 20 5 27 -7 3 -3 6 9 6 12 1 25 -3 28 -9 3 -5 1 -10 -6 -10 -9 0
-10 -3 -2 -11 6 -6 28 -9 49 -6 33 3 36 5 17 12 -13 4 -23 11 -23 16 0 14 13
10 40 -11 32 -25 37 -25 45 0 3 11 11 20 16 20 6 0 7 -4 4 -10 -10 -17 54 -11
81 6 19 13 28 14 37 5 8 -8 5 -11 -13 -11 l-25 -1 25 -13 25 -14 -30 -4 c-27
-3 -28 -4 -12 -20 9 -9 17 -21 17 -27 0 -15 21 -13 43 3 14 11 15 15 5 20 -7
3 -1 3 14 0 32 -7 71 4 63 17 -8 13 2 11 25 -4 17 -10 22 -9 30 3 5 8 10 11
10 5 0 -5 5 -2 11 8 5 9 20 17 32 18 12 0 16 3 10 6 -7 2 -13 12 -13 20 0 14
2 14 18 0 10 -10 27 -17 38 -17 19 1 19 1 0 15 -19 14 -19 15 7 15 15 0 27 4
27 9 0 14 49 10 61 -5 15 -18 3 -32 -13 -16 -15 15 -38 16 -38 1 0 -5 4 -8 9
-4 6 3 9 -4 8 -15 -1 -12 -8 -20 -19 -20 -9 0 -23 -6 -30 -13 -7 -8 -21 -12
-32 -9 -13 3 -17 1 -12 -6 4 -7 3 -12 -3 -12 -5 0 -11 5 -13 12 -3 7 -11 9
-24 4 -19 -8 -19 -8 1 -16 11 -5 14 -9 7 -9 -7 -1 -10 -6 -6 -12 4 -6 19 -8
38 -5 17 4 41 8 53 9 13 2 28 8 35 15 15 15 38 16 38 2 0 -5 -5 -10 -12 -10
-6 0 -9 -2 -6 -5 9 -9 58 6 52 16 -3 5 -1 9 4 9 18 0 21 -29 4 -33 -9 -3 6 -5
35 -6 28 0 55 4 58 9 3 6 13 10 21 10 8 0 12 -4 9 -10 -4 -6 28 -10 89 -10 79
0 96 3 96 15 0 8 9 15 19 15 26 0 36 -17 14 -23 -12 -3 -10 -5 7 -6 15 0 32 5
39 12 11 10 13 9 7 -1 -11 -19 167 -15 191 5 10 8 13 12 7 9 -7 -3 -15 1 -18
10 -3 9 -12 14 -19 11 -8 -3 -20 -1 -28 4 -11 7 -11 9 4 9 9 0 17 5 17 10 0
13 21 13 40 0 13 -9 13 -11 0 -20 -13 -8 -13 -10 2 -10 27 0 70 19 63 29 -3 5
-1 12 5 16 6 4 7 12 4 18 -4 7 -4 9 1 5 4 -4 16 -3 27 3 11 6 27 7 36 3 14 -6
13 -8 -8 -14 l-25 -8 28 -1 c15 -1 27 -6 27 -12 0 -5 5 -7 10 -4 8 5 7 11 -1
21 -9 11 -6 14 17 14 l29 1 -25 14 c-24 13 -22 14 32 13 36 -1 63 4 74 13 16
12 17 12 11 -3 -8 -22 -3 -22 27 -3 20 13 49 19 131 28 27 3 47 16 40 28 -4 5
-1 9 4 9 6 0 11 -5 11 -11 0 -6 6 -9 13 -6 6 2 11 11 9 19 -3 18 35 31 42 14
3 -7 8 -6 15 4 9 12 11 11 11 -8 0 -17 5 -22 18 -20 10 2 17 12 16 26 0 13 7
24 18 28 13 4 17 11 13 22 -3 8 0 19 7 24 9 5 5 8 -11 8 -19 0 -22 -4 -18 -21
6 -22 -24 -42 -31 -21 -2 7 -9 12 -16 12 -11 0 -13 15 -7 53 0 4 7 7 14 6 17
-3 47 11 47 22 0 6 -9 5 -21 -1 -11 -7 -23 -9 -26 -6 -4 3 -12 1 -20 -6 -10
-8 -17 -8 -25 0 -7 7 -10 12 -8 13 3 0 21 2 40 5 19 2 39 9 45 16 7 8 5 9 -7
5 -10 -4 -18 -2 -18 3 0 6 5 10 11 10 5 0 7 5 4 11 -9 13 -66 2 -80 -16 -9
-10 -14 -10 -30 2 -19 15 -19 15 -1 9 11 -4 23 -1 27 6 12 19 114 17 115 -2 0
-8 2 -20 2 -26 2 -14 52 -37 52 -24 0 6 -7 10 -15 10 -8 0 -15 7 -15 15 0 9 6
12 18 9 14 -5 14 -4 2 4 -8 6 -18 8 -22 6 -15 -10 -8 9 10 23 9 8 11 12 5 8
-7 -3 -13 -2 -13 2 0 5 6 15 13 22 10 11 10 13 0 7 -7 -4 -13 -2 -13 3 0 6 7
11 15 11 21 0 19 28 -2 33 -17 4 -17 5 0 6 15 1 16 4 6 22 -8 15 -8 19 0 15 7
-5 11 9 11 43 0 45 -3 51 -21 51 -12 0 -17 4 -14 11 4 6 13 8 20 5 10 -3 13
11 14 56 0 54 -1 60 -18 55 -13 -3 -18 -1 -14 9 2 7 11 10 19 7 11 -4 14 5 14
36 0 28 -5 44 -15 47 -8 4 -12 11 -9 16 4 6 10 5 15 -3 6 -10 9 -8 9 9 0 12
-6 22 -12 22 -9 0 -10 3 -2 8 16 10 18 432 2 432 -9 0 -9 3 0 12 7 7 12 43 12
90 0 63 -3 78 -15 78 -8 0 -15 4 -15 10 0 5 7 7 15 4 12 -5 15 2 15 30 0 25
-5 36 -14 36 -8 0 -18 5 -22 12 -5 8 0 9 14 6 21 -6 22 -3 22 57 0 41 -4 65
-12 69 -10 5 -10 7 0 12 15 7 16 34 0 34 -9 0 -9 3 0 12 18 18 16 105 -3 112
-8 3 -15 10 -15 15 0 6 7 8 15 5 12 -5 15 5 15 60 0 46 -4 66 -12 66 -10 0 -9
3 1 9 11 7 11 9 0 14 -10 4 -10 6 -1 6 6 1 12 5 12 10 0 5 -10 7 -22 3 -14 -3
-19 -2 -14 6 4 7 14 12 22 12 12 0 14 30 13 183 0 100 -3 176 -6 170 -2 -7
-14 -12 -26 -12 -16 1 -18 2 -5 6 10 2 15 10 11 19 -3 8 1 14 11 14 24 0 22
177 -2 183 -15 4 -15 5 -1 6 14 1 17 20 18 151 1 116 -1 150 -11 150 -9 0 -9
3 2 10 23 15 2 12 -74 -10 -38 -11 -74 -17 -79 -13 -6 4 -3 9 8 13 18 6 17 7
-3 12 -12 4 -20 3 -17 -2 3 -4 -8 -10 -23 -13 -15 -3 -30 0 -34 6 -6 9 -8 9
-8 0 0 -6 7 -19 16 -28 15 -15 14 -15 -12 -10 -23 5 -26 4 -14 -5 12 -10 10
-11 -10 -6 -14 3 -29 6 -35 6 -5 0 -3 5 5 10 13 8 12 10 -3 10 -10 0 -25 -6
-33 -14 -12 -13 -12 -15 4 -20 9 -2 -1 -2 -23 0 -30 4 -36 3 -25 -5 12 -8 8
-11 -17 -11 -17 0 -35 -4 -38 -10 -3 -5 -12 -10 -18 -10 -7 0 -6 4 3 10 25 15
-12 23 -82 16 -35 -3 -72 -6 -83 -6 -11 0 -35 -7 -53 -16 -18 -8 -37 -12 -43
-9 -5 4 -15 2 -22 -3 -7 -6 -43 -13 -82 -17 -70 -8 -129 -23 -92 -24 9 -1 17
-8 17 -17 0 -12 -7 -15 -25 -12 -13 3 -26 1 -28 -5 -1 -5 -24 -12 -50 -14 -56
-6 -63 11 -14 33 l32 14 -40 -5 c-22 -4 -51 -9 -65 -12 -14 -4 -31 -5 -37 -4
-7 1 -13 -2 -13 -8 0 -5 -18 -12 -40 -16 -22 -4 -40 -11 -40 -16 0 -6 -8 -5
-20 1 -24 13 -112 9 -122 -5 -5 -6 -11 -5 -16 3 -10 16 -63 6 -59 -11 1 -6 -7
-12 -18 -14 -17 -3 -17 -2 -5 7 12 8 10 9 -10 5 -14 -3 -38 -7 -55 -9 -17 -1
-29 -8 -28 -14 3 -11 -16 -16 -44 -13 -6 1 -14 -3 -18 -9 -3 -5 -17 -10 -30
-10 -14 0 -44 -4 -67 -10 -24 -5 -77 -15 -118 -21 -41 -7 -82 -15 -90 -17 -8
-3 -45 -7 -82 -9 -86 -6 -92 13 -8 23 33 4 63 11 66 15 3 5 18 9 34 9 22 0 28
4 24 15 -4 8 -1 15 5 15 6 0 11 -4 11 -10 0 -15 66 -12 78 3 6 7 48 19 92 26
44 8 80 18 80 23 0 5 -4 6 -10 3 -5 -3 -21 6 -36 22 -20 21 -27 24 -34 14 -11
-19 -1 -43 16 -37 8 3 14 2 14 -3 0 -8 -53 -14 -220 -27 -41 -3 -124 -9 -185
-15 -60 -5 -144 -11 -185 -14 l-75 -4 95 14 c52 7 146 16 208 20 89 6 112 11
112 23 0 8 -8 21 -17 28 -17 13 -17 13 0 14 9 0 17 -4 17 -10 0 -5 12 -10 26
-10 14 0 32 -7 41 -16 9 -9 22 -12 32 -8 9 4 37 6 64 5 52 -2 55 0 31 23 -14
15 -14 16 3 17 16 0 16 1 -2 9 -16 7 -13 9 17 9 24 1 43 -6 55 -18 29 -31 81
-35 189 -12 55 11 126 23 159 26 33 4 67 9 75 12 8 3 36 6 62 8 26 2 62 12 80
21 22 12 53 18 95 17 35 0 60 3 57 8 -3 5 9 6 27 2 18 -3 30 -2 26 3 -3 5 15
10 40 11 33 1 50 8 68 27 24 26 65 36 65 16 0 -5 -9 -10 -20 -10 -11 0 -20 -4
-20 -10 0 -6 9 -6 26 0 14 6 38 10 54 10 16 0 31 4 34 8 2 4 30 9 61 10 32 1
62 5 69 11 6 5 22 9 36 9 14 0 75 10 135 22 61 12 156 29 213 38 l103 16 -2
117 c-2 99 -4 119 -18 122 -13 4 -13 5 2 6 18 1 23 26 7 36 -6 4 -8 10 -5 15
3 5 -3 11 -12 13 -15 4 -15 5 -2 6 9 0 19 11 23 24 8 32 7 77 -2 77 -5 0 -9 7
-9 15 0 8 4 15 9 15 16 0 7 30 -9 31 -16 0 -15 1 1 8 19 7 18 8 -5 16 l-24 8
24 4 c19 4 21 7 10 15 -11 7 -11 11 -1 15 6 2 12 9 12 14 0 5 -18 0 -40 -11
-22 -11 -40 -16 -40 -11 0 5 -10 7 -21 4 -16 -4 -20 -2 -17 8 3 8 15 13 26 11
15 -2 22 2 22 13 0 12 -6 15 -21 10 -14 -5 -19 -3 -15 3 3 6 0 13 -6 15 -12 5
39 11 72 8 17 -1 47 16 40 22 -3 3 -27 1 -55 -3 -28 -5 -54 -4 -59 1 -6 5 -18
9 -28 9 -10 0 -27 9 -38 20 -12 12 -25 18 -30 15 -6 -4 -10 -1 -10 4 0 6 9 11
20 11 11 0 20 -4 20 -10 0 -5 7 -10 15 -10 8 0 15 4 15 9 0 5 17 9 37 9 l38 0
-30 -12 -30 -13 38 -4 c38 -5 72 13 45 24 -7 3 2 6 20 6 32 1 43 15 20 24 -10
4 -10 6 0 6 19 1 16 101 -3 101 -8 0 -15 -4 -15 -10 0 -15 -44 -12 -76 6 -28
15 -28 15 -4 11 14 -2 32 -8 41 -11 10 -4 23 0 34 10 11 12 14 19 6 22 -6 2
-9 8 -6 12 3 5 12 7 20 3 10 -3 15 1 15 15 0 16 -5 19 -22 14 -14 -3 -19 -2
-14 6 4 7 14 12 22 12 20 0 17 18 -5 30 -23 12 -51 14 -36 2 13 -10 18 -35 5
-27 -19 12 -60 15 -60 5 0 -5 -5 -10 -11 -10 -6 0 -9 10 -7 23 2 15 10 22 25
22 12 0 25 4 29 8 8 7 -15 10 -56 7 -20 -1 -23 1 -12 11 6 7 12 17 12 21 0 4
-6 8 -12 8 -18 -1 -51 -48 -43 -60 4 -6 -7 -26 -24 -46 -33 -37 -40 -57 -17
-48 8 3 17 1 20 -4 3 -6 -5 -13 -19 -16 -23 -6 -29 -20 -28 -63 1 -7 -5 -13
-13 -13 -8 0 -15 6 -15 13 -4 47 -3 87 3 87 4 0 6 12 4 28 -1 15 -8 26 -14 24
-7 -1 -29 -4 -51 -6 -21 -1 -43 -6 -49 -10 -5 -3 -17 -4 -24 -1 -17 7 -71 -19
-61 -28 9 -10 -2 -8 -34 4 l-28 11 24 9 c13 5 33 7 45 4 17 -5 18 -4 6 4 -8 6
-11 11 -6 11 5 0 3 6 -3 14 -10 12 -8 16 10 21 12 4 24 3 28 -3 9 -13 57 -7
53 8 -3 14 51 5 80 -13 14 -9 21 -7 35 8 30 33 26 55 -10 55 -38 0 -31 9 12
14 37 4 38 5 43 31 1 11 -2 20 -9 20 -24 0 -25 15 0 15 29 0 34 5 41 44 5 28
5 28 -39 21 -28 -4 -45 -2 -45 4 0 5 -12 12 -27 14 -16 2 5 3 46 1 74 -4 74
-4 104 31 37 43 49 45 35 4 -7 -22 -7 -34 0 -41 6 -6 8 -24 5 -41 -6 -29 -5
-30 26 -24 l33 7 -21 -36 c-30 -50 -27 -64 12 -63 23 1 26 3 10 6 -47 9 -9 32
40 24 4 0 7 4 7 10 0 6 -9 9 -20 6 -11 -3 -18 -1 -14 4 3 5 12 9 20 9 11 0 14
18 14 84 l0 85 -45 7 c-25 3 -45 11 -45 16 0 5 20 29 45 54 l45 43 -2 1328
c-1 1164 -6 1369 -19 866 -4 -118 -6 -133 -21 -133 -24 0 -50 -42 -42 -66 4
-10 16 -31 26 -46 21 -30 22 -38 8 -38 -9 0 -41 63 -70 135 -31 77 -90 193
-144 284 -65 109 -103 179 -129 241 -33 81 -37 92 -37 110 0 10 -3 20 -7 22
-10 4 -35 58 -57 119 -9 25 -23 54 -31 65 -12 16 -11 8 2 -46z m-747 -998
c177 -184 179 -188 118 -213 -29 -12 -32 -11 -47 12 -9 13 -34 44 -57 69 -30
33 -45 60 -54 100 -7 30 -17 61 -23 68 -6 8 -5 12 4 12 8 0 34 -22 59 -48z
m481 -177 c5 4 9 0 9 -7 0 -7 15 -19 33 -26 58 -23 82 -39 79 -51 -1 -6 8 -15
20 -20 13 -5 38 -26 57 -46 28 -30 32 -39 20 -46 -11 -7 -11 -9 -1 -9 7 0 20
-7 28 -15 9 -8 21 -15 27 -15 6 0 4 7 -5 16 -15 15 -14 18 11 40 18 15 35 21
49 17 22 -5 31 -23 11 -23 -14 0 -3 -38 22 -72 24 -34 18 -35 -21 -7 -16 12
-37 19 -48 17 -10 -3 -30 3 -43 13 -13 10 -33 19 -44 19 -11 0 -45 24 -75 53
-30 29 -73 66 -95 82 -21 17 -47 38 -57 48 -10 9 -22 17 -26 17 -4 0 -8 9 -8
21 0 14 5 19 18 16 10 -3 19 0 19 6 1 7 4 2 6 -11 2 -12 9 -20 14 -17z m-186
-6 c4 -6 15 -13 25 -17 32 -13 302 -267 399 -377 46 -51 15 -27 -64 50 -83 81
-282 266 -322 299 l-33 28 -1 -34 c-1 -18 -2 -42 -3 -53 -1 -11 -3 -35 -4 -52
-2 -26 -6 -33 -22 -33 -11 0 -20 -5 -20 -12 0 -6 -3 -8 -7 -5 -7 8 -6 89 3
165 5 41 10 52 25 52 10 0 21 -5 24 -11z m-1660 -251 l18 -32 -31 23 c-18 12
-32 18 -32 12 0 -6 17 -22 38 -36 31 -21 62 -68 67 -105 0 -3 13 -27 29 -53
40 -67 27 -69 -15 -2 -21 34 -41 55 -52 55 -11 0 -27 10 -37 23 -10 12 -21 19
-24 16 -7 -7 16 -59 26 -59 4 0 5 -6 2 -13 -2 -7 13 -26 36 -42 46 -35 55 -57
9 -25 -42 30 -50 16 -11 -20 34 -31 39 -45 20 -54 -7 -3 -4 -4 8 -1 22 6 64
-40 64 -70 0 -9 4 -14 9 -10 5 3 12 -4 16 -15 3 -11 11 -20 16 -20 12 0 11 27
-2 52 -6 11 -7 18 -2 16 4 -2 24 -12 44 -21 25 -11 40 -27 48 -48 15 -42 14
-49 -4 -43 -11 5 -13 2 -9 -10 5 -13 -1 -16 -36 -16 -33 0 -48 6 -66 26 -29
31 -30 34 -4 27 11 -3 20 -12 20 -19 0 -8 5 -14 10 -14 23 0 5 28 -40 63 -27
20 -53 37 -57 37 -5 0 -19 24 -33 52 -14 29 -33 61 -42 70 -9 9 -24 31 -33 47
-16 33 -35 41 -35 16 0 -14 45 -96 81 -147 38 -53 88 -149 76 -146 -6 3 -28
32 -47 66 -19 35 -53 93 -76 130 -23 37 -44 78 -48 92 -4 14 -19 48 -34 77
-26 52 -26 52 -6 74 18 21 102 79 114 79 3 0 14 -14 25 -32z m1624 -18 c94
-43 111 -47 111 -28 0 6 3 8 7 5 3 -4 12 -2 19 4 18 14 26 -4 15 -33 -8 -22
-7 -25 17 -25 15 0 44 -12 65 -26 21 -14 41 -27 45 -29 4 -2 21 -18 37 -36
l30 -33 -27 10 c-18 7 -28 7 -28 1 0 -6 7 -10 15 -10 8 0 15 -7 15 -15 0 -8
-4 -15 -8 -15 -14 0 -32 23 -32 40 0 10 -21 26 -55 41 -30 13 -55 27 -55 30 0
17 -34 18 -45 2 -8 -10 -17 -14 -21 -10 -5 4 -2 12 6 17 7 5 15 16 16 24 1 9
-2 14 -7 10 -5 -3 -9 0 -9 6 0 6 -10 8 -24 4 -14 -3 -38 2 -62 15 -42 23 -64
27 -64 12 0 -5 16 -15 35 -22 19 -7 35 -17 35 -21 0 -11 0 -11 -59 17 -29 14
-65 28 -81 31 -37 8 -49 44 -14 44 13 0 23 3 23 8 -2 12 1 22 6 22 3 0 45 -18
94 -40z m-609 -450 c0 -5 -21 -11 -47 -12 -139 -5 -142 -6 -123 -18 8 -5 44
-10 79 -10 104 0 67 -7 -84 -15 -77 -4 -158 -9 -180 -11 -22 -2 -70 -5 -107
-6 -38 -1 -68 -6 -68 -11 0 -4 -4 -6 -8 -3 -5 3 -33 -1 -62 -9 -29 -8 -92 -21
-139 -30 -47 -9 -106 -20 -131 -25 -94 -19 -129 -21 -149 -10 -27 14 -27 25 2
26 12 1 60 13 107 28 47 14 129 35 183 46 130 26 445 58 581 60 61 0 112 3
115 5 8 9 31 5 31 -5z m957 -407 c4 -12 -81 -57 -107 -55 -31 1 -80 -20 -98
-42 -21 -28 -125 -88 -246 -141 -82 -37 -141 -79 -132 -94 2 -3 -7 -14 -20
-24 -23 -17 -24 -17 -24 3 0 11 5 20 10 20 6 0 15 11 20 25 5 14 24 34 42 46
18 12 24 18 14 15 -16 -5 -17 -4 -6 9 7 8 19 15 27 15 7 0 23 9 35 20 12 11
28 20 35 20 7 0 13 4 13 9 0 9 78 51 94 51 4 0 4 -5 0 -11 -4 -7 -3 -10 2 -7
5 2 36 17 69 32 33 15 63 32 66 38 4 5 40 27 80 48 74 37 119 46 126 23z
m-3192 -50 c40 -43 63 -136 49 -190 -7 -27 -24 -31 -24 -5 0 9 -9 23 -20 30
-11 7 -20 20 -20 31 0 20 -31 57 -68 81 -28 18 -22 44 17 65 35 19 37 19 66
-12z m-461 -282 c13 -14 19 -48 26 -134 9 -116 16 -143 44 -166 13 -11 13 -17
0 -53 -17 -49 -17 -51 -3 -42 7 4 10 1 7 -7 -3 -8 -10 -13 -16 -12 -6 1 -13
-15 -17 -37 -4 -22 -10 -40 -13 -40 -16 1 -49 49 -61 89 -14 49 -40 93 -50 87
-9 -6 5 132 18 174 6 19 16 63 22 98 6 34 14 62 18 62 5 0 16 -9 25 -19z m-80
-440 c7 -10 6 -12 -4 -6 -9 5 -11 2 -7 -11 3 -11 8 -65 11 -122 5 -82 3 -109
-10 -133 l-15 -30 -37 30 c-20 17 -59 50 -87 75 -27 25 -55 46 -60 46 -15 0
-37 39 -29 51 4 6 19 -4 36 -25 42 -51 54 -45 16 9 l-32 46 19 36 c11 21 31
50 44 65 20 24 26 27 40 16 14 -12 15 -11 2 5 -13 17 -11 21 17 48 18 17 40
42 50 57 l17 26 10 -84 c6 -47 14 -91 19 -99z m2351 29 c-20 -9 -7 -15 24 -11
7 2 11 -3 9 -9 -2 -6 -7 -11 -11 -11 -4 1 -19 1 -33 1 -16 0 -23 4 -18 12 4 7
3 8 -4 4 -7 -4 -12 -13 -12 -21 0 -7 -6 -15 -12 -18 -16 -6 192 2 210 8 6 2
12 0 12 -5 0 -6 -1 -10 -3 -10 -50 0 -247 -57 -335 -96 -29 -13 -57 -24 -62
-24 -6 0 -10 -4 -10 -9 0 -5 -20 -14 -45 -20 -25 -6 -45 -14 -45 -16 0 -3 20
-4 45 -3 25 0 45 4 45 7 0 5 64 32 115 49 6 2 -3 -8 -19 -21 -16 -14 -35 -23
-41 -21 -7 3 -15 -2 -18 -10 -5 -11 0 -16 14 -16 12 0 19 -5 16 -12 -2 -8 -17
-12 -35 -11 -23 2 -34 -3 -42 -17 -6 -11 -15 -18 -19 -16 -4 3 -17 -1 -27 -9
-18 -13 -17 -14 16 -15 48 0 26 -16 -35 -24 -36 -5 -46 -4 -35 3 13 9 13 11
-2 11 -9 0 -19 6 -22 13 -4 9 -8 9 -11 1 -7 -14 -45 -6 -45 8 0 6 6 8 13 5 8
-3 20 -1 28 5 9 6 -2 7 -35 3 -27 -4 -46 -3 -43 2 3 5 1 15 -4 23 -8 13 -10
13 -18 0 -5 -8 -7 -18 -5 -22 3 -4 0 -8 -6 -8 -7 0 -10 7 -6 15 3 8 1 15 -3
15 -5 0 -12 -6 -14 -12 -4 -8 -6 -7 -6 3 -1 9 9 24 22 33 15 12 17 16 5 12
-10 -3 -18 -1 -18 4 0 6 4 10 9 10 5 0 16 3 24 6 12 4 14 0 10 -15 -3 -12 -1
-21 6 -21 5 0 8 6 5 13 -2 7 4 22 16 32 11 10 20 15 20 11 0 -5 16 1 35 13 23
13 35 16 35 8 0 -7 4 -6 10 3 14 22 12 27 -12 25 -13 -1 -29 3 -36 8 -11 9
-13 6 -10 -13 3 -23 -1 -25 -37 -27 -22 -1 -32 1 -22 4 9 2 15 9 12 13 -3 5
-17 5 -32 -1 -14 -5 -28 -8 -30 -5 -8 8 56 24 76 19 16 -4 20 -2 16 9 -4 10 1
17 14 21 15 4 21 0 22 -11 0 -11 3 -12 6 -5 3 10 13 9 40 -2 32 -14 38 -14 53
0 9 8 27 16 41 17 13 2 27 8 32 13 4 6 10 5 16 -4 7 -11 13 -11 32 3 22 15 20
16 -46 12 -39 -2 -61 -1 -50 1 25 6 45 22 45 36 0 5 -8 3 -18 -6 -20 -18 -57
-23 -47 -7 3 6 1 10 -5 10 -6 0 -13 -7 -16 -15 -4 -9 -19 -15 -36 -15 -16 0
-51 -10 -78 -21 -31 -13 -59 -19 -75 -15 -19 5 -23 3 -19 -9 5 -11 2 -14 -12
-9 -11 4 -24 11 -30 15 -6 5 -17 0 -27 -11 -20 -24 -37 -26 -37 -5 0 19 -6 19
-28 -2 -49 -46 -61 -53 -84 -43 -22 8 -22 9 6 9 25 1 28 4 24 26 -5 26 16 36
25 13 4 -8 6 -7 6 3 1 13 18 20 69 29 37 7 101 23 142 36 66 20 176 47 250 60
14 3 63 7 110 10 47 3 87 8 89 10 2 2 11 4 20 3 12 0 11 -3 -4 -9z m-899 -249
c13 -13 141 -29 187 -23 31 3 36 2 31 -12 -3 -9 -1 -22 4 -29 8 -10 -1 -21
-40 -47 -45 -31 -51 -33 -62 -18 -7 9 -24 18 -37 20 -14 2 -43 20 -65 40 -33
32 -35 37 -17 35 12 0 19 -5 16 -11 -4 -5 1 -7 11 -3 10 4 23 7 29 8 22 1 -28
18 -56 18 -16 1 -26 5 -22 10 3 5 -3 12 -12 14 -15 4 -15 5 3 6 11 0 24 -3 30
-8z m-426 -308 c-14 -10 -33 -16 -42 -15 -10 2 -18 -2 -18 -7 0 -6 14 -11 30
-11 23 0 30 -4 30 -20 0 -12 -7 -20 -17 -20 -15 0 -16 -2 -3 -10 10 -6 17 -5
22 5 5 7 17 11 28 8 11 -3 17 -10 13 -17 -4 -6 1 -5 11 3 15 13 19 13 26 0 7
-10 4 -16 -8 -22 -13 -5 -11 -6 5 -3 13 2 26 0 29 -6 3 -5 18 -7 33 -4 25 6
25 6 6 -9 -11 -9 -32 -19 -47 -22 -16 -3 -28 -9 -28 -14 0 -13 -38 -20 -75
-13 -19 3 -35 10 -35 15 0 5 7 6 15 2 13 -4 15 0 11 22 -6 35 -15 43 -25 26
-6 -9 -23 -12 -49 -10 -26 3 -38 0 -35 -7 2 -6 18 -8 35 -6 21 3 29 1 24 -7
-9 -14 -41 -14 -66 -1 -30 16 -68 -6 -62 -35 4 -21 -2 -25 -44 -38 -28 -8 -43
-17 -36 -21 22 -13 14 -39 -11 -34 -27 5 -48 -13 -37 -33 5 -8 2 -19 -6 -27
-12 -11 -14 -9 -14 10 0 16 -3 19 -8 10 -5 -8 -16 -10 -28 -5 -17 6 -17 5 -5
-10 12 -15 12 -17 -2 -12 -32 13 -26 95 7 95 17 0 50 30 42 38 -3 2 -12 -1
-20 -7 -8 -7 -20 -10 -26 -6 -19 12 -10 23 25 29 37 7 40 12 26 35 -11 17 -31
6 -32 -17 0 -14 -2 -13 -8 3 -5 13 -3 24 7 31 8 6 12 16 8 22 -11 18 3 15 41
-9 25 -15 41 -19 61 -13 l27 7 -30 7 c-29 6 -28 6 15 14 25 5 37 11 27 13 -9
3 -14 9 -11 15 4 7 -7 8 -35 3 -27 -4 -41 -3 -41 4 0 6 8 11 18 11 16 1 16 1
0 11 -10 5 -18 15 -18 22 0 8 3 8 8 2 4 -5 14 -10 22 -10 8 0 14 -6 13 -12 -4
-16 -4 -16 36 -2 17 6 31 15 31 20 0 5 4 9 10 9 5 0 7 -7 4 -15 -4 -8 -1 -15
5 -15 6 0 11 7 11 15 0 9 9 15 24 15 13 0 31 3 40 6 10 4 16 1 16 -9 0 -8 -6
-18 -12 -20 -10 -4 -10 -6 0 -6 7 -1 18 12 23 29 9 25 15 29 34 24 12 -3 26
-1 29 5 4 6 12 11 19 11 6 0 0 -8 -13 -17z m1243 -37 c18 -1 27 -6 27 -17 0
-9 8 -20 18 -24 16 -6 16 -7 0 -19 -10 -7 -18 -18 -18 -25 0 -6 -7 -11 -15
-11 -8 0 -15 5 -15 10 0 6 -5 10 -11 10 -6 0 -8 -7 -5 -15 3 -8 8 -21 11 -28
3 -7 -8 -21 -26 -31 -24 -14 -42 -17 -85 -11 -30 3 -54 11 -54 16 0 5 -16 9
-36 9 -24 0 -34 4 -31 13 2 6 -3 17 -12 24 -14 11 -12 14 16 25 25 9 32 17 27
30 -4 14 0 18 18 19 22 0 22 1 3 9 -38 15 23 30 95 23 36 -4 77 -7 93 -7z
m-787 -157 c19 -16 17 -29 -4 -29 -10 0 -21 -3 -25 -6 -8 -8 3 -34 15 -34 6 0
5 6 -2 15 -22 27 14 18 40 -10 27 -29 52 -35 26 -6 -18 20 -7 39 15 25 6 -3
15 -1 19 6 5 8 15 10 26 6 13 -5 15 -9 6 -18 -19 -19 -14 -23 23 -23 19 0 35
4 35 8 0 5 7 1 16 -7 8 -9 26 -16 39 -16 29 0 43 -19 24 -32 -10 -7 -8 -8 9
-5 12 3 22 1 22 -4 0 -5 9 -9 21 -9 11 0 17 -4 14 -10 -3 -5 -2 -10 3 -10 15
0 21 25 11 41 -6 10 -9 10 -9 2 0 -7 -7 -13 -15 -13 -23 0 -18 15 10 30 15 8
21 16 15 20 -18 11 17 32 40 25 17 -5 19 -10 9 -21 -9 -12 -6 -14 20 -14 17 0
31 4 31 10 0 5 18 13 40 16 22 4 40 11 40 16 0 6 -9 8 -20 5 -11 -3 -23 -1
-26 4 -3 5 6 9 20 9 32 0 34 16 4 23 -12 4 -19 9 -15 13 3 4 18 -1 31 -10 14
-9 37 -16 52 -16 22 0 25 2 14 15 -16 19 -19 20 79 -15 47 -17 91 -28 99 -25
7 2 11 1 7 -4 -3 -5 8 -12 25 -16 16 -4 30 -13 30 -21 0 -8 8 -14 18 -14 18 0
26 -12 50 -72 9 -22 9 -26 -3 -21 -8 3 -15 0 -15 -6 0 -6 7 -11 16 -11 11 0
14 -5 10 -16 -3 -9 -6 -21 -6 -29 0 -14 -27 -24 -74 -30 -16 -1 -31 -7 -35
-13 -9 -15 -88 -25 -96 -13 -3 6 -11 8 -17 5 -6 -4 -5 -10 3 -15 10 -6 7 -9
-11 -10 -44 -3 -48 -4 -56 -11 -4 -4 -19 -5 -33 -1 -25 6 -25 5 -8 -14 23 -26
22 -32 -5 -25 -14 3 -19 1 -14 -6 4 -6 23 -10 44 -9 30 2 38 6 40 25 2 12 9
22 16 22 17 0 38 -25 29 -33 -3 -4 -1 -7 6 -7 7 0 11 -6 8 -14 -3 -7 0 -19 6
-25 8 -8 5 -11 -10 -11 -12 0 -25 5 -28 10 -4 6 -11 8 -16 4 -13 -8 -1 -24 25
-34 17 -7 15 -8 -14 -7 -19 1 -52 -2 -72 -6 -25 -5 -38 -4 -38 3 0 6 14 13 31
17 21 4 27 8 17 14 -14 9 -57 2 -73 -13 -6 -6 -5 -12 5 -18 10 -6 3 -8 -21 -4
-31 5 -37 3 -42 -16 -3 -13 -10 -19 -17 -15 -8 5 -7 11 2 23 12 13 10 14 -9 4
-28 -15 -33 -15 -33 2 0 8 7 16 15 20 8 3 15 11 15 18 0 9 -3 9 -10 -2 -7 -12
-12 -12 -22 -2 -10 10 -8 14 10 18 12 4 22 11 22 16 0 6 -6 8 -14 5 -8 -3 -19
8 -29 28 -14 29 -14 33 -2 28 8 -3 15 -11 15 -19 0 -8 10 -14 22 -14 20 0 20
1 4 19 -13 15 -14 20 -4 23 7 3 -6 8 -30 11 -33 6 -42 11 -42 27 0 11 -5 20
-11 20 -5 0 -8 -4 -4 -9 3 -5 -7 -9 -22 -9 -16 0 -32 -1 -38 -2 -24 -6 -27 1
-9 16 15 12 16 15 2 10 -65 -20 -146 -18 -133 4 3 6 0 10 -7 10 -8 1 -5 7 7
16 12 9 30 12 43 9 17 -4 23 -2 19 7 -2 7 -12 12 -22 10 -11 -2 -14 1 -10 8 4
6 13 9 20 6 7 -2 18 1 25 7 10 9 11 9 6 0 -9 -17 25 -33 71 -33 21 0 46 -7 56
-15 15 -11 24 -11 44 -2 23 10 23 12 6 18 -10 4 -31 8 -47 8 -17 1 -38 11 -52
26 -22 24 -10 37 13 14 6 -6 16 -10 22 -8 6 2 -5 15 -25 28 -26 18 -38 21 -43
12 -4 -6 -27 -13 -50 -14 -29 -1 -40 -5 -37 -14 5 -12 -9 -17 -42 -16 -7 1
-11 -5 -9 -11 4 -9 -3 -11 -20 -8 -20 4 -24 1 -21 -14 2 -11 -4 -20 -16 -22
-11 -2 -16 0 -12 7 4 7 -1 11 -13 11 -12 0 -21 4 -21 9 0 5 -9 11 -20 14 -11
3 -20 2 -20 -3 0 -4 -11 -10 -25 -12 -15 -3 -22 -1 -18 5 4 6 0 8 -10 4 -8 -3
-25 3 -37 13 -20 17 -20 20 -6 43 15 22 15 24 -8 37 -14 7 -22 18 -19 26 3 9
-2 14 -13 14 -12 0 -15 3 -8 10 8 8 19 8 38 0 15 -5 32 -8 36 -5 12 7 32 -30
22 -40 -4 -5 -2 -5 5 -1 7 4 9 14 6 23 -4 11 -3 14 5 9 16 -10 28 22 13 37 -8
8 -11 8 -11 -1 0 -7 -10 -12 -22 -11 -13 0 -17 3 -10 6 9 3 10 9 2 18 -8 9 -4
11 15 7 15 -2 25 0 25 7 0 6 -6 11 -13 11 -7 0 -21 6 -31 13 -15 11 -11 12 30
10 26 -2 53 -8 60 -14z m-1062 -189 c-3 -3 -9 -5 -12 -6 -4 0 -23 -8 -42 -17
l-35 -17 52 5 c44 5 52 3 47 -9 -3 -8 -11 -13 -18 -10 -7 3 -13 -1 -13 -9 0
-9 12 -14 31 -14 17 -1 25 1 18 4 -6 3 -9 9 -6 14 3 6 17 -2 31 -16 14 -14 32
-25 39 -25 8 0 14 -4 14 -10 0 -5 -7 -10 -15 -10 -7 0 -18 -7 -23 -16 -6 -11
-11 -13 -16 -5 -11 18 -36 13 -29 -5 5 -13 2 -15 -13 -10 -10 3 -25 2 -31 -2
-8 -5 5 -14 37 -23 39 -12 47 -13 39 -2 -7 8 -8 13 -1 13 16 0 24 -33 10 -41
-7 -5 -19 -2 -28 5 -8 7 -21 11 -29 8 -7 -2 -17 1 -21 8 -4 7 -16 10 -25 6
-28 -11 9 -39 45 -34 23 4 30 1 30 -13 0 -16 -25 -34 -42 -31 -5 1 -8 -2 -8
-8 0 -5 8 -10 17 -10 9 0 13 -3 9 -7 -4 -5 -13 -8 -19 -8 -7 0 -12 -7 -12 -15
0 -8 -5 -21 -9 -29 -7 -11 -5 -13 7 -8 10 3 17 2 17 -4 0 -6 9 -8 20 -4 11 4
20 2 20 -4 0 -6 7 -11 15 -11 8 0 15 -5 15 -11 0 -5 -4 -7 -10 -4 -5 3 -10 2
-10 -4 0 -6 -8 -7 -17 -4 -16 6 -16 5 -3 -8 19 -18 66 -39 89 -39 13 0 18 -8
18 -30 0 -17 5 -36 12 -43 11 -10 12 -8 6 11 -4 14 -2 22 6 22 7 0 23 9 35 21
19 18 25 19 43 7 12 -7 21 -17 21 -22 0 -4 7 -3 15 4 18 15 19 36 3 44 -7 3
-2 3 12 0 14 -4 27 -11 28 -15 2 -5 18 -9 35 -9 22 0 36 -7 45 -21 7 -11 19
-18 27 -15 8 3 17 1 20 -5 4 -5 15 1 25 13 10 13 22 20 26 16 4 -4 1 -14 -5
-22 -11 -13 -8 -16 13 -22 14 -3 26 -12 26 -20 0 -18 -8 -18 -26 1 -9 8 -22
15 -30 15 -8 0 -14 -7 -14 -15 0 -8 5 -15 11 -15 6 0 9 -9 6 -20 -3 -13 1 -21
12 -25 12 -4 17 -15 17 -40 -1 -19 -2 -35 -3 -35 -17 0 -83 35 -83 45 0 8 -16
14 -40 17 -22 2 -40 1 -40 -2 1 -12 39 -50 51 -50 10 0 10 3 1 12 -16 16 -15
28 1 28 6 0 20 -12 30 -25 15 -21 16 -26 4 -31 -8 -3 -14 -16 -14 -30 0 -16 4
-23 12 -20 7 2 21 -1 32 -9 17 -13 16 -14 -10 -20 -30 -8 -35 -20 -12 -29 8
-3 15 -1 15 4 0 20 21 9 60 -30 24 -24 34 -40 25 -40 -22 0 -18 -15 8 -33 l22
-15 -27 5 c-16 3 -28 9 -28 13 0 3 -23 6 -50 6 -28 -1 -50 2 -50 7 0 4 -8 7
-17 7 -15 0 -16 2 -3 10 8 5 11 12 7 17 -4 4 -18 -4 -30 -18 -12 -14 -29 -27
-37 -28 -112 -14 -105 -14 -144 19 -35 31 -61 36 -38 7 16 -19 3 -29 -15 -12
-19 19 -34 19 -27 0 4 -8 1 -15 -5 -15 -6 0 -11 3 -11 8 0 4 -10 13 -22 21
-21 13 -22 13 -8 -3 13 -16 12 -18 -5 -15 -11 2 -26 0 -32 -4 -9 -6 -13 -1
-13 13 0 13 -8 24 -19 27 -12 3 -17 11 -14 19 3 8 9 11 14 8 6 -3 16 0 24 6
11 9 15 9 15 1 0 -6 -4 -11 -10 -11 -5 0 -7 -7 -4 -15 8 -21 25 -19 31 4 4 16
12 18 41 14 84 -11 142 -12 142 -4 0 5 -8 7 -19 4 -12 -3 -20 2 -24 16 -3 12
-1 21 4 21 5 0 9 5 9 11 0 7 -9 9 -21 6 -17 -5 -20 -1 -17 21 2 15 9 26 16 24
22 -4 13 8 -13 18 -14 5 -29 18 -33 27 -4 12 -18 18 -37 18 -22 0 -30 4 -29
17 1 11 -3 15 -10 11 -6 -4 -22 -6 -36 -5 -22 2 -23 1 -7 -8 9 -6 15 -15 12
-19 -2 -5 5 -11 16 -14 12 -3 18 -10 14 -16 -3 -7 3 -11 15 -11 12 0 18 -4 15
-10 -4 -6 -1 -18 6 -26 11 -13 9 -14 -17 -2 -16 7 -35 18 -42 25 -8 7 -18 10
-24 7 -7 -5 -9 0 -6 14 4 12 2 25 -3 28 -5 3 -9 -2 -9 -10 0 -12 -8 -13 -37
-8 -53 9 -114 8 -140 -1 -17 -6 -23 -5 -23 7 0 8 -4 17 -9 20 -5 4 -7 -2 -4
-12 3 -12 -1 -19 -11 -19 -15 0 -21 16 -16 47 3 24 8 25 30 5 24 -21 157 -34
144 -14 -5 9 -2 10 9 6 13 -5 17 -1 17 18 0 15 -15 39 -42 65 -43 41 -58 49
-58 29 0 -8 -5 -8 -15 1 -8 7 -15 19 -15 26 0 8 -6 11 -14 8 -12 -5 -13 -10
-3 -32 9 -20 9 -26 -1 -30 -6 -2 -12 -10 -12 -18 0 -8 -7 -14 -15 -14 -8 0
-15 4 -15 9 0 5 7 11 15 15 8 3 15 13 15 22 0 10 -6 14 -14 11 -22 -9 -28 5
-10 24 10 11 12 19 5 24 -6 3 -11 1 -11 -4 0 -6 -4 -11 -10 -11 -21 0 -9 20
16 26 22 6 74 47 74 59 0 2 -9 1 -19 -2 -11 -3 -28 0 -38 6 -17 10 -17 10 0
11 10 0 15 5 12 10 -6 9 8 14 28 11 5 -1 6 3 3 8 -4 5 2 12 11 14 10 3 5 4
-12 4 -16 -1 -33 -5 -36 -9 -3 -5 -17 -4 -31 1 -22 8 -27 7 -31 -10 -6 -22 3
-25 21 -7 6 6 15 9 19 5 3 -4 -2 -13 -12 -21 -10 -7 -15 -18 -12 -23 8 -12
-20 -26 -33 -18 -5 3 -11 1 -15 -5 -4 -7 -13 -6 -27 1 -14 7 -23 8 -30 1 -7
-7 -20 -4 -39 10 -22 16 -31 19 -42 10 -8 -7 -17 -9 -21 -5 -4 4 -4 0 -1 -9 5
-12 -2 -17 -27 -22 -18 -4 -43 -7 -55 -8 -14 0 -23 -7 -24 -17 0 -9 -3 -11 -5
-5 -3 7 -14 9 -26 6 -14 -3 -19 -1 -14 6 4 7 14 12 22 12 9 0 22 7 30 15 8 8
21 12 28 9 8 -3 17 -1 20 4 3 5 -3 12 -14 15 -11 3 -20 1 -20 -4 0 -5 -13 -9
-28 -9 -16 0 -32 -3 -36 -7 -4 -5 -12 -9 -17 -9 -5 -1 -13 -2 -19 -3 -5 0 -10
-7 -10 -15 0 -8 -7 -17 -16 -20 -9 -3 -12 -2 -9 5 4 5 3 18 -1 27 -4 9 -6 27
-5 40 2 14 -3 22 -13 22 -10 0 -16 -9 -16 -21 0 -14 -5 -19 -14 -16 -8 3 -19
0 -26 -7 -8 -11 -5 -15 14 -20 13 -3 33 -3 43 0 17 6 17 6 1 -11 -10 -11 -21
-14 -30 -9 -7 5 -24 9 -38 10 -14 1 -30 2 -37 3 -23 2 -2 26 38 45 28 13 37
21 28 27 -19 11 8 41 35 38 28 -3 57 10 79 34 16 19 18 19 35 4 10 -10 21 -17
24 -17 10 0 48 37 48 47 0 17 -38 45 -51 37 -8 -4 -10 -3 -5 4 4 7 17 12 29
13 18 0 19 2 5 7 -30 12 45 65 83 60 16 -3 29 -1 29 2 0 4 21 6 48 5 55 -3 94
4 87 15 -3 5 0 10 7 13 16 5 -19 -1 -48 -9 -15 -4 -23 1 -32 21 -7 14 -12 27
-12 28 0 1 17 1 38 -1 27 -3 44 2 61 17 22 20 47 26 80 21 7 -1 26 4 41 10 47
19 179 36 164 20z m-769 -459 c26 -5 30 -11 32 -44 0 -20 -3 -37 -8 -37 -5 0
-9 5 -9 11 0 6 -9 8 -20 4 -30 -10 -24 10 8 22 24 10 25 11 5 12 -12 1 -28 -5
-36 -13 -8 -8 -30 -19 -48 -24 -19 -6 -26 -11 -16 -11 37 -2 14 -16 -31 -19
-35 -2 -43 0 -32 8 11 8 8 9 -12 4 -21 -5 -28 -2 -28 9 0 9 -8 18 -17 20 -12
3 -8 5 9 6 15 0 33 8 42 16 8 8 17 15 21 15 4 0 13 7 21 15 16 15 64 18 119 6z
m-144 -117 c55 9 63 8 75 -9 19 -25 18 -32 -6 -38 -11 -3 -20 -10 -20 -16 0
-6 7 -8 15 -5 11 5 15 -1 15 -25 0 -24 -5 -32 -25 -37 -14 -3 -22 -10 -20 -15
3 -4 12 -6 19 -3 8 3 17 1 20 -4 12 -19 -33 -19 -53 0 -17 15 -21 16 -21 4 0
-8 10 -22 23 -31 17 -12 19 -17 8 -24 -7 -5 -10 -14 -7 -20 4 -6 0 -11 -8 -11
-9 0 -16 -4 -16 -8 0 -19 86 3 94 24 3 8 16 14 28 13 22 0 22 -1 3 -9 -11 -4
-31 -19 -44 -33 -19 -21 -29 -24 -58 -20 -33 6 -35 4 -28 -16 5 -16 2 -21 -12
-21 -13 0 -14 3 -5 8 9 6 7 13 -8 30 -11 11 -20 26 -20 32 0 5 -7 10 -15 10
-8 0 -15 -4 -15 -10 0 -5 4 -10 9 -10 5 0 12 -7 15 -16 4 -12 2 -15 -9 -10 -9
3 -15 0 -15 -9 0 -8 -9 -15 -20 -15 -24 0 -25 13 -4 45 15 22 14 23 -6 18 -11
-3 -23 -9 -26 -14 -3 -5 -14 -9 -25 -9 -10 0 -19 -5 -19 -11 0 -7 10 -9 26 -6
18 3 24 1 20 -9 -3 -9 4 -16 19 -20 14 -3 25 -10 25 -14 0 -4 27 -7 59 -6 38
1 56 5 50 11 -5 5 -9 16 -9 25 0 12 2 12 9 1 7 -10 13 -11 30 -2 15 9 27 9 44
1 20 -10 21 -10 4 4 -18 14 -18 15 2 25 25 14 34 14 26 1 -3 -6 1 -13 9 -16
26 -10 20 -53 -9 -66 -17 -7 -21 -14 -14 -19 7 -4 -3 -12 -25 -20 -49 -18 -40
-34 20 -35 79 -1 87 -3 81 -18 -7 -17 30 -29 37 -12 3 6 5 4 5 -4 -2 -33 2
-40 27 -40 14 0 23 -4 20 -8 -8 -13 44 -38 52 -26 4 6 14 14 22 17 8 4 1 6
-17 4 -18 -2 -30 0 -27 5 3 4 -6 10 -20 14 -14 3 -30 12 -36 20 -9 10 -6 15
15 20 20 5 23 9 13 15 -11 8 -11 10 1 18 7 5 9 11 4 14 -10 6 -35 -6 -34 -17
3 -18 -1 -21 -24 -22 -16 -1 -25 3 -25 13 0 11 7 14 26 9 23 -6 24 -5 14 14
-6 11 -15 18 -21 15 -5 -4 -12 1 -15 10 -5 12 -9 13 -14 5 -5 -8 -10 -9 -14
-2 -3 6 7 14 22 20 21 7 33 6 48 -5 18 -14 18 -15 -6 -9 -21 6 -22 5 -7 -4 9
-6 26 -8 37 -5 20 6 21 4 24 -35 1 -8 9 -14 19 -12 9 2 17 -1 17 -6 0 -4 6
-16 13 -26 12 -16 16 -17 35 -5 12 8 22 19 22 26 0 7 15 16 33 21 l32 8 -27 7
c-16 4 -28 12 -28 18 0 15 48 2 68 -17 8 -9 18 -12 21 -7 3 4 21 9 39 10 53 3
63 6 59 17 -2 6 -26 11 -53 12 -27 1 -53 2 -59 4 -5 1 -18 2 -27 1 -9 -1 -19
8 -23 19 -4 12 -9 19 -13 16 -3 -3 -16 1 -28 9 -13 8 -35 14 -50 13 -15 -2
-29 2 -31 8 -2 6 -15 9 -28 6 -23 -4 -23 -3 -12 22 10 22 19 26 52 26 22 0 50
-3 63 -6 25 -7 31 -34 7 -34 -8 0 -15 7 -15 15 0 9 -6 12 -15 9 -8 -4 -15 -10
-15 -15 0 -5 7 -9 15 -9 8 0 15 -5 15 -10 0 -6 15 -10 33 -10 17 0 53 -2 79
-4 35 -4 47 -2 45 7 -1 7 6 11 16 11 9 -1 17 2 17 7 0 5 -5 9 -11 9 -20 0 2
20 24 21 13 1 16 3 7 5 -18 5 -42 52 -30 59 5 3 11 -4 15 -15 3 -11 11 -20 16
-20 6 0 7 6 2 13 -13 21 -9 42 12 49 15 4 12 6 -13 7 -29 1 -31 3 -19 15 21
21 113 24 136 4 11 -9 22 -14 24 -11 9 8 66 -26 77 -47 6 -11 16 -17 25 -14
11 4 15 -1 15 -16 0 -18 3 -20 14 -11 12 10 14 9 9 -7 -3 -14 -11 -18 -29 -14
-14 2 -24 0 -24 -7 0 -11 4 -12 52 -15 36 -2 49 -16 15 -16 -14 0 -29 -4 -32
-10 -3 -5 -15 -10 -27 -10 -14 0 -18 -5 -14 -15 3 -8 2 -14 -2 -13 -4 1 -20
-2 -35 -7 -34 -9 -18 -25 26 -25 15 0 27 -5 27 -11 0 -6 -7 -8 -15 -5 -11 4
-15 0 -13 -12 2 -10 -2 -16 -11 -14 -8 2 -11 -3 -8 -13 4 -8 1 -15 -6 -16 -7
0 -22 -2 -34 -5 -13 -2 -23 1 -23 6 0 6 -7 10 -15 10 -8 0 -15 5 -15 10 0 6 7
10 15 10 13 0 13 3 3 20 -13 20 -13 20 -22 1 -7 -16 -15 -18 -45 -14 l-36 6
23 -19 c13 -11 25 -32 25 -46 1 -14 6 -26 12 -25 14 3 13 -52 -2 -65 -10 -8
-13 -7 -13 5 0 8 -13 21 -30 29 -16 7 -30 17 -30 22 0 4 -7 5 -16 2 -12 -5
-14 -1 -9 15 5 15 4 19 -4 15 -7 -5 -11 2 -12 16 -1 17 -3 18 -6 5 -3 -10 -9
-14 -16 -10 -7 4 -31 8 -55 10 -37 2 -42 0 -32 -12 7 -8 20 -15 29 -15 9 0 22
-9 29 -20 7 -11 22 -20 35 -20 18 0 19 -2 7 -11 -11 -8 -8 -9 15 -5 26 5 33 2
54 -31 13 -21 26 -33 28 -26 6 18 50 -5 56 -28 7 -28 6 -34 -5 -31 -6 2 -8 -6
-5 -19 5 -20 3 -21 -46 -16 -34 4 -45 3 -32 -3 18 -8 17 -9 -7 -9 -20 -1 -26
3 -22 14 4 9 0 15 -7 16 -8 0 2 7 21 14 19 7 29 14 22 14 -7 1 -29 -6 -48 -14
-20 -8 -40 -12 -45 -9 -5 3 -9 0 -9 -5 0 -6 12 -11 28 -12 15 0 21 -3 14 -6
-6 -2 -10 -9 -6 -14 3 -5 -3 -9 -13 -9 -14 0 -12 -4 10 -18 15 -9 27 -19 27
-22 0 -3 -25 -16 -55 -30 -41 -19 -51 -27 -43 -37 12 -15 -3 -17 -20 -3 -8 7
-9 7 -3 -1 5 -6 7 -18 4 -25 -6 -16 22 -19 32 -4 3 6 22 10 42 10 27 0 34 3
29 15 -4 11 1 15 17 15 12 0 29 5 37 11 12 8 10 9 -7 4 -37 -10 -48 5 -16 22
61 33 112 22 114 -25 2 -23 2 -24 6 -5 4 19 10 22 36 20 26 -2 32 2 30 17 -1
15 4 17 30 12 26 -5 60 -29 64 -46 6 -22 16 -40 23 -40 13 0 5 29 -13 51 -27
31 -17 55 11 27 9 -9 12 -8 12 5 0 23 12 21 28 -4 11 -18 11 -24 -3 -39 -12
-14 -13 -20 -4 -26 7 -4 17 0 24 9 16 22 25 21 26 0 1 -17 2 -17 6 0 2 9 9 17
14 17 6 0 7 5 3 12 -5 8 2 9 26 4 41 -8 39 -5 42 -44 1 -18 5 -32 9 -32 4 0 9
-9 12 -20 3 -11 4 -20 3 -20 0 0 -16 4 -34 9 -20 6 -32 6 -32 0 0 -5 7 -9 15
-9 8 0 15 -4 15 -8 0 -4 -22 -9 -50 -10 -28 -1 -50 2 -50 8 0 5 8 10 17 10 13
0 14 3 6 11 -8 8 -19 4 -40 -16 -18 -18 -22 -25 -11 -22 13 5 19 0 24 -18 8
-33 -2 -45 -39 -45 -36 1 -72 23 -62 39 4 7 -1 8 -12 4 -15 -5 -16 -3 -5 8 16
17 16 32 -1 26 -7 -3 -22 2 -32 10 -19 15 -19 15 5 10 22 -5 23 -5 8 7 -10 7
-18 22 -18 32 -1 18 -1 18 -11 1 -6 -9 -14 -15 -20 -12 -5 4 -4 -5 3 -19 6
-15 8 -29 3 -34 -4 -4 -10 -1 -12 6 -3 6 -12 12 -21 12 -15 0 -15 2 -2 10 10
6 11 10 3 10 -21 0 -28 -4 -25 -14 2 -6 1 -20 -2 -32 -4 -16 -11 -21 -26 -17
-11 3 -20 10 -20 15 0 6 7 7 16 4 8 -3 13 -2 10 3 -3 5 -14 11 -25 14 -15 4
-19 0 -15 -16 2 -11 8 -24 14 -27 6 -4 -9 -7 -35 -8 -25 0 -43 4 -39 9 3 5 13
9 22 9 15 0 15 2 2 10 -9 6 -16 6 -18 0 -2 -5 -12 -4 -22 3 -15 9 -22 9 -32
-1 -16 -16 -41 -16 -32 1 6 10 4 10 -7 0 -18 -18 -27 -16 -39 8 -9 15 -8 24 1
35 10 12 6 14 -22 13 -19 0 -28 -3 -21 -6 17 -7 15 -23 -3 -23 -18 0 -18 -5
-5 -31 6 -11 7 -19 1 -19 -5 0 -11 7 -15 15 -3 8 -12 12 -20 9 -8 -3 -29 3
-47 13 -24 13 -33 15 -36 6 -6 -15 -49 -17 -58 -3 -4 6 -11 7 -17 4 -6 -4 -14
-1 -18 6 -5 7 -19 14 -32 16 -12 1 -27 3 -33 3 -5 1 -1 8 10 17 19 14 17 14
-24 8 -32 -5 -42 -4 -37 4 11 18 -5 14 -27 -5 -11 -10 -17 -12 -13 -5 5 7 1
12 -10 12 -12 0 -15 6 -12 25 3 14 1 25 -6 25 -6 0 -3 5 7 11 9 5 17 15 17 20
0 14 26 39 39 39 15 0 14 9 -3 26 -16 15 -27 18 -25 7 3 -19 -2 -33 -12 -33
-6 0 -9 9 -6 20 4 15 -1 22 -20 26 l-26 7 24 13 c24 13 24 13 -8 14 -43 0 -42
12 2 26 31 10 35 9 41 -8 5 -18 7 -18 38 2 35 21 81 27 91 11 6 -10 117 -7
134 4 11 6 14 -5 11 -42 -2 -24 14 -31 26 -11 4 6 2 14 -5 16 -9 3 -9 8 1 20
10 12 10 14 1 8 -8 -4 -13 -1 -13 8 0 9 21 25 50 37 54 23 61 34 29 44 -12 4
-18 12 -15 21 8 21 -7 17 -22 -6 -11 -18 -10 -20 8 -20 33 0 23 -18 -12 -22
-18 -2 -32 -8 -31 -15 2 -8 -20 -10 -75 -9 -42 2 -85 -1 -95 -6 -13 -7 -19 -4
-26 14 l-8 23 -7 -22 c-6 -19 -11 -21 -32 -13 -19 8 -24 6 -24 -6 0 -8 -4 -13
-10 -9 -5 3 -2 19 9 39 l19 33 -36 -12 c-20 -7 -44 -22 -53 -34 -17 -21 -35
-30 -24 -11 8 13 1 12 -60 -5 -41 -11 -46 -15 -28 -20 13 -4 21 -14 20 -25 -1
-10 -5 -16 -9 -14 -11 7 -81 -16 -90 -29 -4 -7 -11 -7 -20 0 -15 13 -98 6 -98
-8 0 -9 36 -14 77 -10 13 1 31 -3 42 -8 15 -9 20 -7 25 12 5 17 8 19 15 9 7
-11 9 -11 14 2 9 23 41 21 33 -1 -5 -15 -4 -15 9 1 13 17 15 17 21 3 9 -24 24
-21 19 3 -2 13 2 20 11 20 10 0 13 -10 11 -35 -1 -24 -7 -35 -17 -35 -9 0 -22
-6 -29 -12 -17 -18 -74 -16 -88 2 -16 21 -27 6 -13 -19 6 -12 18 -20 28 -19
11 2 17 -5 19 -25 1 -22 -2 -27 -13 -23 -19 7 -18 -4 4 -24 16 -15 19 -16 41
-1 18 12 26 12 29 3 5 -15 32 -16 32 -1 0 6 9 8 23 3 30 -9 30 -9 15 -33 -8
-13 -23 -21 -39 -21 -22 0 -26 -4 -22 -19 4 -15 0 -18 -21 -14 -28 6 -34 18
-13 26 6 3 2 4 -10 4 -26 -1 -31 -22 -8 -31 8 -3 15 -10 15 -16 0 -7 -6 -7
-21 1 -19 10 -20 8 -14 -10 5 -16 2 -21 -12 -21 -14 0 -15 -2 -4 -9 22 -14 4
-51 -25 -51 -13 0 -24 5 -24 10 0 6 -5 10 -11 10 -5 0 -7 -5 -4 -10 11 -18
-15 -40 -46 -40 -37 0 -37 15 0 34 16 9 31 24 34 35 4 18 2 19 -15 10 -18 -10
-20 -9 -14 6 5 13 3 15 -6 8 -7 -5 -30 -11 -52 -12 -21 -1 -57 -11 -79 -21
-45 -22 -60 -26 -37 -9 15 11 6 10 -57 -7 -17 -5 -23 -2 -23 10 0 17 -12 21
-24 9 -3 -4 -16 -7 -27 -8 -15 -1 -19 3 -16 17 3 10 1 18 -4 18 -5 0 -9 -4 -9
-9 0 -5 -8 -11 -18 -13 -15 -4 -18 -1 -14 19 3 14 12 27 21 30 9 2 24 9 33 14
10 5 25 9 33 9 9 0 13 5 10 10 -10 16 -65 13 -59 -4 3 -9 -4 -15 -20 -18 -35
-7 -35 19 -1 32 14 5 28 17 31 25 4 8 17 15 31 15 13 0 22 4 19 9 -4 5 -21 5
-41 -2 -26 -8 -39 -7 -47 1 -9 9 -8 12 7 12 10 0 15 3 12 7 -4 3 1 15 10 26
10 10 16 20 13 21 -3 1 2 10 11 19 9 9 19 13 23 10 3 -4 6 1 6 10 0 20 -35 23
-44 5 -3 -7 -3 -2 0 11 4 16 3 21 -5 17 -16 -10 -14 3 4 20 8 9 23 13 34 9 14
-4 19 -1 17 12 -2 31 34 27 65 -8 22 -25 26 -35 18 -46 -9 -10 -6 -13 15 -13
14 0 26 5 26 11 0 5 -4 7 -10 4 -5 -3 -10 -4 -10 -1 0 2 -2 11 -5 18 -6 14 10
18 68 19 15 0 27 4 27 8 0 15 -87 42 -116 36 -23 -5 -26 -4 -14 5 11 9 12 13
2 17 -6 2 -10 9 -6 14 3 5 1 9 -4 9 -6 0 -12 -7 -16 -15 -3 -8 -13 -14 -23
-14 -16 1 -16 2 1 6 14 4 16 7 6 13 -21 13 13 42 39 32 19 -7 21 -10 21 -32 0
-5 5 -10 11 -10 5 0 7 5 4 11 -4 6 -1 10 6 8 31 -4 59 2 59 12 0 6 -6 9 -14 6
-9 -4 -16 3 -20 16 -3 12 -4 22 -3 22 1 1 17 -13 35 -32 l34 -33 -36 0 c-41 0
-41 -20 1 -39 20 -9 29 -9 41 1 12 10 16 10 19 1 5 -15 32 -17 52 -4 11 7 10
15 -9 42 l-24 32 32 -23 c18 -13 32 -30 32 -37 0 -8 12 -13 33 -13 24 0 28 3
17 10 -12 8 -12 10 -1 10 11 0 10 5 -4 20 -12 13 -14 20 -5 20 10 0 10 3 0 15
-10 12 -10 15 0 15 7 0 10 7 6 15 -3 9 0 15 9 15 8 0 15 5 15 12 0 6 8 4 19
-6 17 -15 19 -15 25 -1 3 9 11 13 17 10 6 -4 8 -13 6 -19 -3 -7 -2 -18 2 -24
4 -7 12 2 20 23 11 32 31 48 31 25 0 -5 4 -10 10 -10 11 0 1 32 -14 42 -6 4 1
8 16 8 15 0 30 -4 33 -10 3 -5 12 -10 18 -10 7 0 6 4 -3 10 -11 7 -9 11 13 19
34 13 47 14 47 3 0 -5 6 -9 13 -10 83 -11 92 -11 75 2 -10 7 -15 15 -12 18 2
3 -4 8 -16 11 -11 3 -20 1 -20 -4 0 -5 -8 -9 -17 -9 -15 0 -16 2 -3 10 12 8
10 10 -10 10 -15 0 -31 -5 -38 -12 -6 -6 -15 -8 -19 -4 -4 4 -1 11 7 16 9 6
10 10 3 10 -21 0 -43 -12 -37 -21 6 -11 1 -11 -20 -3 -9 3 -13 10 -10 15 8 13
-20 11 -34 -3 -7 -7 -12 -20 -12 -30 0 -10 -5 -18 -11 -18 -5 0 -7 5 -4 11 10
15 -15 69 -31 69 -8 0 -14 -5 -14 -10 0 -6 6 -9 13 -8 7 2 13 -11 15 -34 2
-22 -1 -38 -7 -38 -6 0 -11 5 -11 10 0 6 -5 10 -11 10 -6 0 -8 -9 -3 -22 6
-20 5 -21 -9 -10 -15 13 -67 7 -67 -7 0 -4 -11 -8 -25 -9 -14 -1 -25 3 -25 8
0 6 -7 10 -15 10 -8 0 -15 7 -15 15 0 8 7 15 15 15 8 0 15 5 15 11 0 5 5 7 12
3 7 -5 8 -3 4 5 -5 7 -14 10 -22 7 -8 -3 -14 -1 -14 4 0 10 14 14 40 10 8 -1
11 2 7 6 -4 4 7 16 25 27 32 17 32 18 6 12 -27 -5 -40 9 -16 17 19 7 -29 48
-54 48 -22 -1 -22 -1 -4 -15 18 -14 16 -15 -22 -12 -34 2 -41 5 -36 19 3 10
-4 26 -15 37 -25 25 -27 35 -6 27 8 -3 15 -1 15 3 0 17 -25 18 -40 2 -8 -8
-15 -24 -15 -34 0 -11 -5 -22 -10 -24 -20 -6 -8 44 16 70 17 18 37 28 65 30
23 2 46 7 51 10 6 4 25 2 42 -3 25 -7 33 -6 38 5 4 11 10 12 23 5 10 -6 26 -7
34 -4 9 3 16 1 16 -5 0 -17 47 -13 54 5 3 8 11 12 16 9 8 -5 8 -11 0 -20 -14
-17 -1 -24 30 -14 14 4 20 7 15 8 -6 1 -11 11 -12 22 -3 29 -8 32 -33 19 -12
-6 -28 -9 -35 -6 -8 3 -16 0 -19 -7 -4 -9 -7 -9 -11 -1 -4 7 -25 10 -57 8 -30
-2 -57 1 -65 8 -11 9 -16 9 -22 -1 -4 -6 -21 -13 -37 -15 -16 -2 -30 -5 -31
-6 -2 -1 -6 -3 -10 -4 -5 -1 -23 -6 -40 -10 -18 -4 -33 -12 -33 -17 0 -5 -11
-7 -25 -3 -15 4 -25 2 -25 -5 0 -6 -5 -11 -11 -11 -16 0 -36 24 -31 38 2 6 -2
12 -8 12 -8 0 -10 -9 -6 -23 4 -19 0 -26 -20 -35 -33 -16 -33 -15 -31 8 1 11
5 20 10 20 5 0 7 7 3 15 -3 8 -1 15 4 15 5 0 15 6 22 13 18 15 55 37 65 37 5
0 0 -7 -10 -14 -10 -8 -14 -17 -9 -20 5 -3 15 1 21 8 9 10 24 13 48 9 26 -4
34 -3 29 5 -4 7 -2 12 5 12 7 0 9 3 6 6 -4 4 -13 1 -21 -5 -10 -9 -20 -10 -32
-3 -15 8 -10 12 27 23 49 14 73 29 45 29 -10 0 -14 5 -11 11 4 6 14 8 22 5 8
-3 11 -1 8 4 -3 6 -3 10 2 11 4 0 18 2 31 3 29 3 28 -7 -3 -24 -14 -7 -25 -19
-25 -27 0 -7 -4 -13 -10 -13 -5 0 -10 -4 -10 -10 0 -5 12 -10 26 -10 16 0 23
4 18 11 -5 8 1 10 20 7 14 -3 26 -1 26 3 0 5 -5 9 -12 9 -6 0 -2 9 11 21 16
15 30 19 49 15 15 -3 22 -3 15 0 -19 8 -3 35 17 29 25 -8 35 11 13 24 -10 6
-13 11 -6 11 6 0 14 -4 17 -9 3 -5 23 0 43 10 21 11 39 16 41 11 1 -4 30 -3
63 2z m1281 -334 c21 -21 35 -27 42 -20 6 6 20 -2 43 -26 20 -23 38 -34 48
-30 9 3 15 0 15 -9 0 -20 -9 -19 -46 4 -31 19 -32 19 -27 0 3 -10 11 -19 19
-19 7 0 16 -5 20 -11 4 -8 -1 -9 -17 -4 -21 7 -22 6 -11 -8 17 -20 9 -33 -23
-39 -13 -3 -22 -2 -20 3 12 19 -18 19 -31 0 -11 -15 -26 -21 -54 -21 -32 0
-43 5 -57 28 -10 15 -23 31 -30 35 -20 12 -16 27 7 27 18 0 19 2 8 21 -11 17
-10 22 5 30 9 6 17 17 17 25 0 9 6 14 13 11 6 -2 11 -10 10 -16 -2 -6 3 -11
10 -11 6 0 4 -5 -5 -11 -26 -14 -22 -29 6 -29 14 0 28 -4 31 -10 3 -5 12 -10
18 -9 9 0 9 2 0 5 -7 3 -9 12 -6 20 3 8 -1 14 -9 14 -15 0 -38 40 -38 65 0 24
28 17 62 -15z m-315 -101 c-6 -4 -5 -9 1 -13 6 -3 13 -2 17 4 13 21 48 8 93
-34 26 -25 44 -47 41 -51 -4 -3 -27 -6 -53 -7 -51 -1 -59 -15 -31 -55 14 -20
13 -22 -18 -41 -25 -14 -39 -17 -57 -10 -15 5 -26 5 -28 0 -3 -11 -52 -3 -52
8 0 4 -8 11 -17 15 -15 5 -16 4 -5 -6 37 -38 -8 -30 -50 9 -18 17 -34 23 -48
19 -25 -7 -50 1 -50 15 0 5 9 7 20 3 11 -3 28 -1 37 5 17 10 16 11 -2 8 -11
-2 -28 4 -37 14 -10 10 -13 18 -7 18 8 0 7 5 -1 15 -17 21 -4 32 20 17 23 -14
60 -16 60 -3 0 14 51 23 65 11 10 -8 14 -7 18 2 4 9 8 9 14 3 4 -6 21 -11 36
-12 22 -1 25 2 17 12 -6 7 -21 16 -33 19 -21 5 -34 46 -15 46 4 0 8 -8 8 -19
0 -10 9 -21 20 -24 25 -6 25 0 3 26 -10 11 -12 17 -5 13 6 -4 12 -2 12 3 0 6
-4 11 -10 11 -5 0 -10 7 -10 16 0 12 6 11 28 -8 16 -13 25 -26 19 -29z m877
-165 c9 -3 16 -12 16 -20 0 -7 6 -11 14 -8 8 3 17 1 21 -5 3 -7 -2 -11 -15
-11 -17 0 -19 -4 -14 -25 5 -22 3 -25 -22 -25 -24 -1 -26 -2 -12 -10 9 -6 27
-9 40 -8 31 3 88 -21 88 -36 0 -6 14 -20 30 -31 29 -20 30 -20 7 -27 l-22 -6
22 -7 c13 -4 20 -11 17 -17 -3 -5 -11 -5 -17 0 -7 5 -22 4 -37 -4 -14 -8 -19
-14 -10 -14 13 0 13 -1 0 -10 -9 -6 -17 -5 -22 3 -5 8 -13 8 -30 0 -39 -19
-81 -22 -111 -6 -33 16 -46 11 -27 -12 7 -8 8 -15 2 -15 -5 0 -13 7 -16 16 -3
8 -9 13 -14 10 -4 -2 -6 13 -4 35 5 43 -13 54 -28 17 -7 -18 -9 -19 -9 -5 -1
9 -8 17 -16 17 -24 0 -17 15 13 27 l27 10 -30 13 c-16 7 -33 13 -37 12 -5 -1
-8 5 -8 13 0 19 10 19 38 -1 12 -8 22 -10 22 -5 0 6 -5 11 -11 11 -6 0 -9 6
-6 14 3 8 3 17 -1 19 -4 2 -1 2 6 0 8 -2 19 0 25 4 12 8 17 9 52 12 11 1 16 5
10 9 -5 4 -11 17 -13 30 -3 17 2 22 17 22 12 0 21 5 21 10 0 11 20 13 44 4z
m883 -264 c17 0 35 5 38 10 9 15 25 12 25 -5 0 -8 -5 -15 -10 -15 -6 0 -4 -13
5 -30 14 -27 14 -30 0 -30 -8 0 -15 -7 -15 -15 0 -8 -5 -15 -11 -15 -8 0 -8
-4 -1 -13 9 -10 -4 -11 -66 -5 -42 5 -106 10 -140 12 -35 3 -67 8 -70 12 -4 4
12 4 36 1 23 -3 42 -3 42 -1 0 3 -9 14 -19 26 -17 17 -18 23 -6 34 7 8 21 14
29 14 10 0 13 6 10 15 -4 10 0 15 14 15 12 0 23 4 26 9 3 5 23 3 43 -5 21 -7
52 -13 70 -14z m-1152 -77 c16 -16 75 -20 96 -7 11 6 60 -22 57 -34 -1 -4 3
-16 9 -27 10 -18 9 -21 -8 -22 -10 -1 -22 3 -25 9 -5 7 -1 9 9 5 21 -8 22 6 3
22 -11 9 -17 8 -29 -3 -8 -8 -17 -12 -21 -9 -3 4 -6 -1 -6 -10 0 -11 -5 -14
-15 -11 -11 5 -14 1 -9 -12 5 -15 3 -14 -10 4 -21 27 -37 28 -54 2 -10 -17
-16 -18 -33 -10 -29 16 -99 23 -99 10 0 -18 -18 -11 -23 11 -3 12 0 22 8 25 8
3 11 12 9 19 -7 18 53 30 101 21 28 -6 34 -4 29 8 -3 9 -12 12 -21 9 -11 -4
-14 -2 -9 5 10 16 22 15 41 -5z m699 -32 c3 -5 -1 -12 -10 -15 -24 -9 -5 -28
24 -23 26 5 61 -18 47 -31 -4 -4 -10 -1 -12 6 -6 14 -39 16 -48 2 -3 -6 1 -13
9 -16 32 -12 17 -34 -22 -34 -21 0 -44 -6 -51 -12 -11 -11 -12 -10 -6 0 4 8 2
13 -6 11 -33 -4 -59 2 -59 14 0 7 -9 19 -20 27 -22 16 -27 34 -8 28 18 -6 37
14 30 32 -4 12 -3 13 9 4 21 -16 59 -15 76 2 16 16 39 18 47 5z m1546 -40 c0
-5 -6 -11 -12 -14 -7 -2 -6 -3 2 -2 8 2 22 5 30 9 8 3 26 -3 40 -15 l25 -20
-37 3 c-20 1 -40 -1 -44 -5 -4 -4 0 -7 9 -7 10 0 17 -5 17 -11 0 -6 -8 -8 -18
-4 -11 3 -32 -1 -47 -9 l-28 -15 26 -6 c15 -4 25 -11 22 -15 -3 -5 1 -11 7
-13 7 -3 -2 -3 -20 0 -29 5 -33 3 -31 -13 2 -10 -1 -19 -6 -19 -6 0 -9 3 -7 8
1 4 -5 7 -13 7 -9 0 -15 10 -15 26 0 14 -4 23 -10 19 -5 -3 -10 -1 -10 4 0 6
-11 11 -25 11 -14 0 -28 7 -31 15 -4 8 -10 15 -16 15 -5 0 -7 -4 -4 -9 3 -5
-8 -11 -24 -13 -29 -4 -50 6 -50 26 0 6 5 5 12 -2 16 -16 28 -15 28 2 0 19 37
27 50 11 6 -7 24 -15 40 -17 24 -4 30 -1 30 14 0 10 5 18 11 18 5 0 7 -4 4
-10 -7 -12 8 -14 19 -2 4 4 11 7 15 7 4 0 15 8 25 18 19 19 36 22 36 8z
m-5099 -21 c13 -7 19 -7 19 0 0 5 5 10 10 10 15 0 12 -16 -6 -34 -8 -9 -11
-16 -6 -16 5 0 15 7 22 15 10 12 16 13 27 3 12 -10 18 -9 29 6 12 17 13 17 11
-3 -1 -11 -5 -21 -10 -21 -5 0 -22 -9 -37 -20 -18 -13 -31 -16 -35 -10 -8 14
-65 13 -65 -1 0 -6 6 -9 14 -6 8 3 28 1 44 -5 25 -10 32 -8 50 10 12 12 29 22
37 22 8 0 15 6 16 13 0 9 2 9 6 0 2 -7 -8 -24 -23 -38 -15 -14 -23 -25 -18
-25 5 0 1 -7 -9 -15 -11 -8 -17 -21 -14 -32 4 -16 6 -15 12 5 5 16 15 22 36
22 16 0 29 -4 29 -10 0 -5 -4 -10 -10 -10 -5 0 -10 -4 -10 -9 0 -19 61 14 66
36 4 13 10 20 15 17 5 -3 6 2 3 10 -3 8 -12 12 -20 9 -8 -3 -14 0 -14 6 0 6
-7 11 -15 11 -8 0 -15 4 -15 9 0 15 32 22 46 10 20 -16 37 -1 19 17 -8 9 -19
12 -25 9 -5 -3 -10 -2 -10 3 0 14 34 25 38 13 2 -6 9 -8 15 -4 17 10 50 12 66
3 11 -6 9 -9 -7 -14 -12 -4 -22 -14 -22 -21 0 -9 -6 -12 -16 -8 -11 4 -15 1
-13 -13 2 -10 0 -25 -4 -31 -5 -9 -3 -13 7 -13 23 0 20 -21 -4 -27 -25 -7 -25
-12 -3 -29 21 -14 18 -19 -17 -29 -24 -7 -24 -6 -6 7 11 9 15 18 9 21 -13 8
-53 -3 -53 -15 0 -5 -8 -8 -17 -7 -10 2 -29 -3 -41 -10 -13 -7 -45 -15 -70
-18 -26 -3 -50 -9 -53 -15 -3 -5 -9 -9 -13 -9 -44 6 -105 -27 -91 -50 7 -11
-3 -11 -30 1 -19 8 -19 9 3 9 13 1 20 5 17 11 -3 6 0 10 7 10 7 0 0 7 -16 15
-20 11 -33 12 -40 5 -7 -7 -6 -10 2 -10 28 0 9 -20 -30 -32 -24 -6 -46 -16
-49 -20 -3 -5 -11 3 -18 18 -9 21 -14 24 -26 14 -11 -9 -19 -9 -28 -2 -8 7
-18 7 -27 2 -13 -8 -12 -10 3 -10 10 0 34 -7 55 -17 20 -9 43 -15 50 -14 23 4
12 -19 -18 -34 -33 -17 -44 -19 -36 -6 3 5 -1 12 -9 15 -11 4 -19 -3 -25 -20
-6 -14 -14 -23 -19 -20 -5 4 -11 1 -13 -5 -2 -6 -16 -11 -30 -11 -23 0 -25 -3
-13 -14 16 -17 29 -18 19 -3 -4 7 0 9 13 5 12 -4 25 -1 33 9 13 16 30 20 30 7
0 -14 -43 -34 -80 -37 -21 -1 -43 -6 -50 -10 -7 -4 -15 -2 -19 4 -4 6 -15 9
-24 5 -20 -7 -22 7 -5 24 9 9 9 12 0 12 -7 0 -11 13 -9 32 2 23 8 34 22 37 17
3 17 1 6 -12 -8 -11 -10 -21 -3 -33 8 -14 10 -12 17 12 5 16 7 33 6 37 0 4 16
15 36 24 33 14 35 17 18 23 -16 6 -11 9 22 14 47 8 68 25 28 22 -14 0 -25 -4
-25 -8 0 -5 -5 -8 -11 -8 -6 0 -9 9 -6 20 3 13 0 20 -9 20 -8 0 -14 5 -14 10
0 6 9 10 20 10 11 0 20 6 20 13 0 7 14 24 30 39 17 14 30 22 30 17 0 -10 30 0
47 17 7 7 22 10 32 7 12 -3 31 4 47 16 23 18 24 21 8 22 -12 0 -8 4 11 10 17
5 38 7 47 5 10 -2 20 0 23 5 3 5 14 3 24 -3 23 -14 55 -3 48 16 -10 25 4 31
34 16z m1468 -9 c13 -12 30 -17 43 -13 14 3 19 1 14 -6 -4 -7 -15 -12 -24 -12
-10 0 -22 -8 -28 -18 -10 -15 -8 -18 7 -19 10 -1 16 3 13 10 -3 8 9 13 36 13
22 1 47 7 55 14 9 7 16 11 18 9 24 -42 26 -49 16 -49 -8 0 -7 -5 2 -16 11 -14
10 -16 -6 -14 -11 1 -29 2 -40 1 -16 -1 -17 -3 -6 -10 12 -8 12 -12 -2 -25 -8
-9 -20 -16 -25 -16 -5 0 -8 -10 -8 -22 1 -17 -4 -22 -16 -20 -10 2 -26 -2 -37
-8 -12 -6 -21 -6 -23 0 -2 5 -25 12 -53 15 -27 3 -56 6 -62 7 -7 1 -13 5 -13
10 0 4 -12 7 -27 7 -24 -2 -25 -2 -5 -6 27 -5 20 -23 -9 -23 -11 0 -27 -7 -35
-15 -9 -8 -21 -15 -27 -14 -9 0 -8 2 1 6 29 12 9 24 -30 18 -24 -3 -56 -8 -73
-10 -16 -2 -38 -6 -47 -10 -13 -5 -18 -2 -18 9 0 9 -6 16 -14 16 -21 0 -46
-11 -42 -19 4 -5 -18 -8 -114 -14 -39 -2 -62 -17 -50 -32 5 -6 -1 -15 -16 -22
-22 -10 -24 -9 -21 12 1 12 8 29 15 37 6 8 9 18 5 21 -3 4 4 7 16 7 12 0 20 4
17 9 -3 5 -15 7 -26 4 -16 -4 -19 -2 -14 11 4 11 14 14 33 10 18 -4 22 -3 13
4 -11 7 -9 11 9 15 15 4 27 0 35 -11 18 -24 17 -32 -4 -32 -22 0 -34 -9 -26
-21 2 -4 24 -2 47 5 23 7 48 11 55 8 6 -2 12 1 12 8 0 6 -4 9 -9 5 -5 -3 -12
-1 -16 5 -3 5 6 12 20 16 13 3 22 10 19 15 -3 5 1 10 8 11 41 4 75 8 91 8 13
1 16 7 11 26 -4 14 -2 24 5 24 6 0 11 -5 11 -11 0 -8 5 -8 15 1 8 7 12 16 9
21 -3 5 9 9 25 9 18 0 31 5 31 13 0 8 4 7 10 -3 9 -13 14 -7 11 13 0 4 10 7
23 7 14 0 35 4 48 9 13 4 36 11 52 15 26 6 28 5 17 -8 -8 -9 -23 -17 -35 -17
-20 -2 -20 -2 1 -6 21 -4 83 29 91 49 6 13 17 9 41 -11z m866 -137 c-10 -7
-11 -14 -4 -21 7 -7 3 -9 -13 -6 -13 2 -33 1 -45 -4 -21 -8 -22 -10 -8 -37 19
-35 19 -46 1 -46 -8 0 -16 -7 -20 -15 -9 -24 -21 -17 -36 20 -11 27 -16 32
-27 24 -9 -9 -13 -8 -13 0 0 7 -4 9 -10 6 -5 -3 -10 -1 -10 4 0 14 -37 14 -45
1 -3 -5 1 -10 9 -10 9 0 16 -9 16 -20 0 -11 -4 -20 -9 -20 -5 0 -15 -2 -23 -5
-9 -4 -13 5 -12 32 2 59 3 63 21 63 9 0 13 3 10 7 -9 9 12 33 29 33 8 0 14 -4
14 -10 0 -5 -8 -10 -17 -10 -17 -1 -17 -1 0 -11 13 -8 22 -7 33 1 10 9 14 9
14 1 0 -6 7 -11 16 -11 10 0 6 8 -13 24 -15 13 -26 27 -23 29 8 8 73 11 90 4
8 -3 27 -7 42 -10 25 -4 27 -2 22 22 l-5 26 15 -25 c13 -21 13 -27 1 -36z
m-537 12 c-3 -15 2 -27 14 -35 22 -14 28 -14 28 -1 0 6 -7 10 -15 10 -25 0
-18 40 8 41 40 2 62 -3 78 -17 8 -8 21 -14 27 -14 36 0 -14 -61 -53 -66 -16
-1 -35 -11 -43 -21 -13 -17 -14 -17 -33 6 -17 20 -22 22 -29 11 -7 -11 -11 -8
-19 13 -7 19 -15 25 -27 20 -12 -4 -15 -1 -12 13 2 10 11 19 20 19 10 0 23 6
30 13 9 9 8 12 -6 12 -9 0 -14 5 -11 10 3 6 15 10 27 10 16 0 19 -5 16 -24z
m1280 -18 c7 -7 12 -21 13 -32 0 -12 3 -15 6 -8 7 19 31 14 44 -9 7 -14 8 -24
1 -31 -6 -6 -8 -16 -6 -23 13 -33 -103 -16 -128 19 -6 8 -11 7 -17 -3 -7 -10
-12 -8 -24 9 -8 12 -20 19 -26 15 -6 -3 -11 1 -11 9 0 9 -4 16 -10 16 -5 0
-10 -4 -10 -10 0 -5 -7 -10 -15 -10 -8 0 -15 5 -15 10 0 6 5 10 11 10 8 0 8 4
1 13 -9 10 -2 14 31 17 23 2 54 3 69 3 15 0 25 4 22 8 -8 14 50 11 64 -3z
m-1503 -92 c25 -8 54 -12 64 -9 32 8 39 -36 10 -58 -29 -23 -69 -25 -69 -4 0
8 -6 15 -12 15 -9 0 -8 4 2 11 11 7 3 8 -30 4 -63 -9 -80 -15 -80 -27 0 -7 5
-6 14 1 11 9 15 9 18 -1 6 -17 -14 -37 -31 -30 -9 3 -12 1 -7 -6 4 -7 19 -9
35 -6 16 4 32 1 35 -5 5 -7 -2 -11 -18 -11 -14 0 -26 -4 -26 -10 0 -5 10 -10
23 -10 18 0 19 -2 7 -10 -21 -14 -40 -12 -40 3 0 6 -11 17 -25 24 -14 6 -23 7
-20 3 3 -5 -1 -13 -10 -17 -12 -7 -7 -12 20 -22 19 -7 33 -17 30 -22 -4 -5 -1
-9 4 -9 6 0 11 -4 11 -8 0 -12 -71 -33 -83 -25 -6 4 -7 1 -2 -7 4 -7 2 -16 -6
-21 -21 -13 -39 -11 -39 6 0 9 -9 15 -22 15 -19 0 -20 2 -8 10 13 8 12 10 -2
10 -10 0 -18 5 -18 10 0 6 8 10 18 11 14 0 14 2 -3 9 -20 9 -20 9 1 9 11 1 26
-5 33 -11 10 -9 12 -9 7 -1 -3 6 2 17 11 23 15 9 13 11 -12 6 -25 -4 -31 -1
-32 14 -1 13 4 17 20 14 16 -3 13 0 -8 10 -16 9 -37 15 -45 16 -9 0 -21 5 -28
12 -7 7 -12 8 -12 2 0 -6 6 -16 13 -23 10 -10 4 -12 -30 -10 -24 2 -43 6 -43
11 0 4 -7 5 -15 2 -8 -4 -15 -1 -15 5 0 6 -11 11 -25 11 -16 0 -25 6 -25 15 0
8 -4 15 -10 15 -6 0 -6 -9 0 -24 6 -17 5 -26 -3 -29 -7 -2 -9 -7 -5 -11 3 -4
16 -3 28 4 37 20 101 -14 77 -40 -7 -7 2 -4 20 8 37 26 39 26 46 8 4 -10 1
-13 -8 -10 -7 3 -16 -3 -20 -15 -4 -14 -14 -20 -28 -18 -16 1 -23 -4 -25 -20
-2 -12 -9 -24 -17 -27 -10 -3 -12 0 -8 12 5 14 3 15 -8 5 -7 -7 -20 -13 -28
-13 -13 0 -13 2 -2 9 8 5 9 11 3 15 -13 8 -42 -3 -42 -15 0 -5 -9 -9 -20 -9
-14 0 -18 5 -13 16 5 14 3 15 -15 5 -27 -14 -32 -14 -32 4 0 8 6 12 14 9 8 -3
25 9 40 29 33 44 33 50 -4 42 -26 -6 -29 -4 -23 11 5 13 3 16 -9 11 -10 -3
-19 0 -22 9 -9 24 -43 16 -74 -17 -22 -23 -31 -28 -37 -19 -6 9 -4 11 5 5 8
-5 11 -3 8 5 -5 17 26 50 47 50 9 0 12 6 8 17 -4 11 -8 12 -11 5 -5 -16 -32
-15 -32 1 0 16 50 39 64 28 11 -8 78 -7 106 2 70 22 101 27 120 17 14 -7 20
-7 20 0 0 13 37 13 46 -1 6 -11 67 -4 89 9 5 4 18 5 29 3 12 -2 16 1 11 9 -9
15 115 5 180 -14z m4265 -41 c0 -2 -7 -11 -16 -19 -14 -15 -14 -17 0 -32 17
-17 21 -34 8 -34 -4 0 -13 5 -19 11 -8 8 -13 8 -17 0 -4 -6 0 -11 8 -11 9 0
16 -5 16 -11 0 -7 -10 -9 -25 -7 -22 5 -24 2 -19 -18 4 -16 1 -24 -13 -28 -10
-3 -1 -4 20 -1 27 3 37 0 37 -11 0 -8 7 -14 16 -14 8 0 12 -5 9 -10 -3 -6 -18
-8 -33 -4 -15 3 -38 8 -52 10 -14 3 -22 2 -17 -2 12 -13 -55 -35 -85 -29 -16
4 -26 10 -23 15 3 5 -5 10 -17 12 -12 2 -23 9 -26 17 -3 8 0 11 7 7 6 -4 11
-2 11 3 0 6 7 11 15 11 9 0 12 -6 9 -15 -4 -8 -1 -15 5 -15 6 0 11 4 11 8 0 5
9 18 20 30 l21 22 -23 0 c-21 0 -21 0 -2 14 17 13 20 13 25 -2 4 -9 5 -25 3
-35 -2 -12 2 -17 13 -15 9 2 17 12 19 23 2 11 10 24 18 31 12 8 13 13 3 24
-10 10 -9 12 5 7 17 -6 36 14 36 38 0 5 9 12 19 16 15 7 15 8 -5 8 -13 1 -21
5 -18 10 5 7 56 4 56 -4z m-114 -66 c3 -6 1 -16 -5 -22 -7 -7 -11 -7 -11 -1 0
6 -23 10 -55 10 -30 -1 -55 -4 -55 -8 0 -5 10 -8 23 -8 21 -1 21 -1 3 -12 -11
-6 -29 -12 -40 -13 -12 -1 -24 -3 -28 -4 -5 0 -8 -9 -8 -18 0 -16 -2 -16 -10
-3 -9 13 -12 13 -25 -4 -7 -10 -20 -16 -27 -14 -7 3 -20 -5 -30 -16 -14 -18
-20 -19 -37 -8 -11 6 -31 12 -43 12 -17 0 -20 -3 -9 -9 17 -11 7 -41 -14 -41
-16 0 -22 45 -7 54 5 3 32 6 60 7 53 3 70 24 19 24 -15 -1 -27 3 -27 7 0 4 11
8 24 8 14 0 28 5 31 10 11 18 -41 10 -64 -9 -17 -15 -31 -18 -58 -14 -28 5
-34 3 -28 -7 6 -10 4 -12 -10 -6 -11 4 -22 2 -27 -6 -5 -9 -8 -7 -8 8 0 24 23
34 78 34 19 0 46 7 61 16 26 15 30 15 61 -1 27 -14 32 -15 27 -2 -7 19 33 10
49 -11 9 -12 13 -12 29 4 18 19 18 19 -8 22 -52 6 -17 19 43 16 33 -1 60 2 60
7 0 13 57 11 66 -2z m-6066 -98 c0 -11 -39 -41 -54 -41 -17 0 -27 -24 -20 -45
4 -8 1 -15 -6 -15 -7 0 -5 -6 5 -16 21 -21 13 -29 -15 -14 -15 8 -20 8 -16 1
4 -7 -1 -11 -13 -11 -12 0 -21 -5 -21 -11 0 -7 -11 -8 -31 -4 -24 5 -35 2 -50
-14 -11 -12 -24 -21 -30 -21 -6 0 -9 -6 -6 -12 8 -23 -13 -49 -34 -43 -11 4
-19 2 -19 -4 0 -6 -7 -11 -16 -11 -8 0 -12 -5 -9 -10 3 -6 -6 -15 -20 -20 -33
-12 -35 -12 -35 0 0 6 7 10 15 10 8 0 15 6 15 14 0 8 17 20 37 27 l37 12 -22
17 c-26 21 -30 45 -6 36 9 -3 20 -6 26 -6 6 0 8 -7 4 -15 -3 -8 -1 -15 4 -15
6 0 10 9 10 20 0 11 5 20 11 20 5 0 9 10 7 21 -2 13 5 26 17 33 11 6 28 20 37
30 10 11 21 16 25 12 4 -3 -3 -13 -15 -22 -30 -20 -28 -29 7 -32 25 -2 28 1
24 18 -4 13 1 22 13 27 16 6 16 7 -2 14 -17 7 -17 8 -1 8 9 1 17 5 17 10 0 5
12 9 26 9 29 0 80 34 77 51 -2 6 4 8 12 5 8 -4 15 -9 15 -13z m6163 -55 c17
-20 17 -21 0 -27 -15 -6 -15 -8 -3 -12 41 -15 42 -16 5 -12 -23 2 -47 0 -55
-5 -12 -8 -11 -10 5 -11 14 0 7 -6 -20 -19 -22 -10 -34 -19 -27 -19 6 -1 12
-8 12 -17 0 -8 5 -12 10 -9 6 4 8 11 5 16 -8 12 25 12 44 0 8 -5 21 -7 29 -3
13 4 12 7 -4 13 -18 7 -18 8 -1 8 10 1 25 8 33 16 9 8 22 15 30 15 8 0 14 -7
14 -15 0 -10 10 -15 28 -15 21 0 24 -2 12 -10 -8 -5 -32 -10 -52 -10 -21 0
-38 -4 -38 -9 0 -5 -6 -9 -12 -8 -40 1 -68 -4 -68 -14 0 -5 4 -8 9 -5 5 4 11
0 14 -6 3 -10 10 -8 26 6 14 13 21 15 21 6 0 -8 4 -9 13 -3 6 6 24 13 39 17
21 5 26 3 22 -8 -3 -8 -17 -17 -32 -21 -14 -3 -32 -15 -39 -25 -8 -11 -20 -17
-27 -14 -7 3 -20 -2 -29 -10 -9 -9 -23 -16 -31 -16 -9 0 -15 -4 -13 -9 1 -5
-2 -9 -8 -9 -5 -1 -9 7 -8 16 1 10 0 11 -3 5 -8 -18 -24 -16 -24 2 0 19 -10
19 -24 -1 -10 -12 -22 -14 -59 -9 -53 8 -61 22 -19 31 15 3 38 10 52 15 21 7
18 8 -16 5 -23 -2 -55 -14 -72 -26 -24 -18 -37 -21 -59 -14 -28 8 -28 8 12 14
30 6 34 8 15 10 -25 3 -53 3 -78 1 -7 0 -10 -6 -7 -11 4 -6 11 -8 16 -5 5 4 9
2 9 -4 0 -14 -32 -29 -47 -24 -7 3 -13 -2 -13 -11 0 -9 8 -16 20 -16 11 0 20
4 20 9 0 15 33 22 42 9 8 -10 11 -10 15 0 7 17 33 15 33 -2 0 -8 6 -16 13 -19
6 -2 9 -8 5 -12 -4 -4 -15 -4 -25 0 -10 5 -26 7 -35 6 -10 -1 -18 3 -18 8 0 6
-4 11 -10 11 -5 0 -7 -7 -4 -15 4 -8 13 -15 21 -15 9 0 13 -6 9 -15 -4 -12 -2
-13 13 -5 14 7 22 6 31 -5 7 -9 10 -19 6 -23 -12 -11 -76 -8 -76 4 0 5 -7 19
-15 30 -13 16 -14 16 -9 2 4 -12 1 -18 -7 -18 -21 0 -42 17 -36 27 3 5 2 15
-3 23 -7 11 -14 12 -34 2 -17 -8 -27 -8 -32 -1 -3 6 -17 8 -30 5 -15 -4 -24
-2 -24 5 0 7 -9 9 -22 5 -30 -7 -98 4 -98 16 0 6 14 8 33 4 52 -10 120 -6 144
9 19 13 27 13 62 0 23 -8 41 -10 41 -5 0 5 -9 11 -19 15 -11 3 -22 12 -25 20
-4 11 2 15 24 15 16 0 32 5 35 10 4 6 -7 10 -27 10 -25 0 -29 3 -18 10 23 15
-18 42 -43 28 -10 -5 -22 -7 -25 -3 -11 11 22 26 50 22 15 -2 30 1 32 7 3 8 7
8 13 0 11 -14 80 -17 88 -4 3 6 11 7 17 4 7 -5 8 -2 3 6 -13 21 16 29 51 14
38 -16 78 -19 69 -5 -3 5 10 15 30 22 22 8 40 24 49 44 18 37 52 41 79 11z
m-3793 -213 c0 -17 8 -17 27 3 14 14 17 12 35 -17 14 -24 22 -29 31 -20 15 15
27 14 27 -4 0 -9 10 -20 23 -24 44 -18 -25 -30 -93 -18 -31 6 -33 5 -17 -7 9
-7 17 -16 17 -18 0 -3 -8 -5 -17 -4 -11 0 -17 -6 -17 -16 2 -25 -13 -23 -21 2
-5 16 -12 19 -28 14 -34 -12 -76 -13 -83 -3 -3 5 -9 7 -13 5 -4 -3 -6 5 -5 17
1 12 3 31 3 42 1 17 3 17 11 5 7 -11 10 -11 10 -2 0 7 10 17 23 22 l22 9 -22
7 c-39 11 -26 19 32 20 40 0 55 -3 55 -13z m552 -6 c21 -7 53 -28 72 -45 20
-18 40 -32 46 -32 5 0 10 -4 10 -10 0 -5 7 -10 15 -10 8 0 14 -3 14 -7 -4 -24
3 -43 15 -43 9 0 12 -7 9 -19 -4 -15 1 -20 22 -23 15 -2 34 -13 42 -24 13 -21
13 -21 -29 -13 -32 6 -47 4 -58 -7 -12 -12 -12 -14 5 -14 17 0 17 -2 5 -10
-10 -6 -11 -10 -2 -10 6 0 12 -7 12 -15 0 -12 -3 -12 -20 2 -11 10 -20 23 -20
31 0 9 -7 11 -19 7 -11 -3 -22 -1 -26 5 -3 5 -11 10 -17 10 -6 0 -3 -9 6 -19
24 -26 4 -36 -25 -12 -17 14 -29 16 -41 10 -10 -5 -19 -5 -22 0 -3 5 3 11 14
14 14 4 18 10 14 22 -5 11 -2 16 7 15 34 -5 48 0 42 16 -5 13 -2 15 14 10 14
-4 23 -1 26 8 4 10 -2 16 -16 18 -12 2 -21 8 -20 14 1 6 -16 11 -38 12 -24 2
-39 -2 -39 -9 0 -6 7 -8 18 -4 13 5 14 4 5 -6 -10 -10 -16 -9 -30 3 -11 9 -30
14 -46 11 -22 -3 -30 1 -34 17 -3 11 -10 20 -15 20 -5 0 -7 -10 -3 -22 5 -20
4 -21 -5 -5 -15 23 -6 35 34 43 32 5 34 8 32 45 0 21 1 39 4 39 3 0 22 -6 42
-13z m-1352 -28 c0 -5 12 -9 26 -9 19 0 25 -5 22 -17 -4 -20 48 -77 62 -68 6
3 10 0 10 -8 0 -8 -8 -18 -17 -21 -15 -6 -15 -8 -3 -16 13 -8 12 -10 -2 -10
-10 0 -17 -3 -17 -7 4 -28 -4 -43 -26 -49 -14 -3 -32 -16 -40 -27 -10 -15 -15
-17 -15 -7 0 12 -2 12 -8 2 -9 -13 -72 -35 -71 -24 3 18 -2 26 -9 15 -4 -7
-22 -16 -40 -19 -28 -6 -32 -4 -32 15 0 12 6 21 15 21 8 0 15 4 15 8 0 13
-110 1 -150 -16 -19 -9 -38 -15 -42 -14 -4 1 -19 -3 -33 -8 -29 -11 -105 -3
-105 12 0 5 5 6 10 3 6 -3 10 1 10 9 0 9 -6 16 -14 16 -7 0 -19 6 -25 14 -10
11 -8 16 8 21 21 6 29 25 11 25 -17 0 43 57 68 64 13 5 21 14 20 24 -2 9 3 17
10 18 6 1 17 2 23 3 5 0 8 5 5 9 -7 12 33 44 46 36 5 -4 13 -1 17 5 5 7 45 12
109 14 56 1 102 5 102 9 0 4 14 2 30 -3 17 -6 30 -15 30 -20z m-993 -36 c2 -6
-10 -14 -26 -18 -28 -6 -33 -11 -30 -31 0 -4 -13 -13 -30 -22 -17 -8 -31 -22
-31 -31 0 -11 3 -12 8 -4 4 6 21 13 37 15 17 2 33 8 37 13 5 6 8 6 8 -2 0 -6
-4 -15 -10 -18 -19 -12 -10 -22 17 -22 15 0 36 8 45 19 17 20 17 20 16 -17 -1
-30 -4 -36 -20 -32 -10 3 -18 1 -18 -5 0 -5 9 -12 19 -15 12 -3 17 -11 14 -20
-3 -8 -11 -12 -19 -9 -8 3 -14 -5 -16 -26 -2 -24 -8 -32 -27 -35 -18 -2 -21 0
-14 9 6 7 10 20 10 28 0 9 3 27 6 42 6 23 3 29 -24 42 l-31 15 4 -59 c3 -43 0
-60 -8 -60 -21 0 -50 -53 -49 -90 0 -32 2 -35 28 -32 35 4 87 -32 61 -42 -10
-4 -22 1 -29 11 -11 15 -15 15 -29 4 -27 -23 -15 -91 16 -91 13 0 9 17 -7 33
-13 13 -11 15 13 14 61 -1 68 3 86 40 17 36 18 37 32 18 17 -22 43 -21 61 2
16 21 39 3 48 -38 4 -16 11 -32 17 -35 6 -4 8 -2 4 4 -9 15 27 76 48 80 10 2
17 -2 15 -10 -6 -51 15 -67 25 -18 5 25 10 30 35 30 16 0 36 3 45 6 10 4 16 1
16 -9 0 -10 -13 -18 -35 -23 -39 -7 -42 -27 -7 -32 12 -2 22 -8 22 -13 0 -5
-3 -8 -7 -8 -25 4 -43 -3 -43 -16 0 -14 17 -20 48 -16 6 1 12 -5 12 -14 0 -11
-11 -15 -44 -15 -43 0 -69 15 -50 29 16 11 16 41 -1 41 -9 0 -15 -9 -15 -24 0
-13 -3 -32 -7 -42 -4 -12 -3 -15 5 -10 7 4 12 1 12 -8 0 -10 -6 -13 -17 -9
-11 4 -14 3 -9 -5 4 -7 1 -12 -8 -12 -12 0 -14 6 -8 23 5 12 6 35 3 51 l-6 30
-12 -27 c-19 -40 -43 -32 -50 17 -5 33 -13 31 -13 -2 0 -18 5 -32 10 -32 6 0
10 -4 10 -10 0 -5 -10 -10 -21 -10 -12 0 -28 -8 -35 -17 -12 -17 -13 -16 -14
5 0 12 -4 22 -10 22 -5 0 -10 7 -10 15 0 21 -43 15 -52 -7 -4 -11 -13 -15 -23
-12 -12 5 -13 9 -4 20 7 8 9 17 6 21 -7 6 -63 -48 -60 -58 1 -3 -8 -4 -21 -2
-12 3 -23 10 -24 16 -13 89 -25 116 -38 83 -3 -9 -17 -16 -30 -16 -13 0 -24
-6 -24 -13 0 -23 -24 -45 -57 -52 -27 -5 -32 -3 -35 16 -2 12 -9 24 -15 27 -9
2 -11 -5 -6 -30 6 -30 5 -32 -10 -19 -9 7 -17 20 -17 27 0 19 -35 18 -54 -1
-22 -22 -27 -18 -20 13 17 69 64 127 64 78 0 -7 7 -21 16 -32 13 -15 15 -16
10 -2 -4 12 -1 15 11 11 12 -5 14 -1 8 15 -3 13 -2 22 4 22 15 0 51 42 45 52
-3 4 8 8 24 8 25 0 29 3 25 19 -5 19 -54 37 -50 18 1 -5 -4 -12 -12 -15 -10
-3 -12 0 -8 13 5 12 1 18 -13 22 -21 5 -28 33 -9 33 5 0 9 8 8 18 -4 30 12 82
26 82 8 0 12 8 9 23 -3 17 -2 16 6 -5 10 -24 15 -26 47 -21 30 5 35 4 30 -10
-3 -9 0 -18 9 -21 8 -3 14 1 14 8 0 8 7 17 16 20 20 8 9 26 -17 26 -25 0 -25
20 1 27 10 3 22 14 25 24 4 10 11 19 16 19 6 0 7 5 4 10 -3 6 0 10 7 11 29 1
51 8 62 19 13 13 48 9 53 -7z m2898 -15 c6 -6 5 -12 -4 -17 -10 -7 -8 -12 10
-26 16 -12 18 -15 6 -11 -23 7 -34 -19 -16 -40 10 -13 10 -17 0 -23 -10 -7
-10 -12 0 -30 8 -11 18 -21 23 -21 4 0 3 -7 -4 -15 -9 -10 -9 -15 -1 -15 6 0
11 -5 11 -11 0 -6 -7 -8 -16 -5 -9 3 -12 2 -9 -5 4 -5 15 -7 25 -4 10 3 21 1
25 -5 6 -10 -7 -14 -34 -11 -7 2 -10 -2 -6 -8 3 -6 1 -11 -4 -11 -6 0 -10 -5
-8 -11 1 -6 -3 -13 -8 -15 -6 -2 -11 5 -11 16 0 11 4 20 8 20 21 0 4 18 -32
34 -22 10 -40 22 -40 27 0 6 7 6 19 -1 33 -17 46 -12 26 10 -17 19 -17 20 1
21 12 0 4 7 -21 19 -22 10 -32 19 -22 19 19 1 23 26 5 37 -7 4 -8 3 -4 -4 4
-7 2 -12 -3 -12 -6 0 -11 7 -11 15 0 9 -6 15 -12 14 -27 -3 -48 1 -48 11 0 6
7 10 15 10 8 0 15 -3 15 -7 0 -5 23 -9 50 -10 28 -2 50 0 50 3 0 9 -41 44 -52
44 -4 0 -8 5 -8 12 0 9 3 9 12 0 15 -15 38 -16 38 -2 0 6 -7 10 -16 10 -8 0
-12 5 -9 10 7 11 43 4 60 -12z m-3445 -74 c0 -8 -5 -12 -10 -9 -6 4 -22 -1
-36 -9 -20 -14 -22 -20 -14 -36 14 -26 13 -83 -2 -98 -18 -18 -78 -16 -78 3 0
21 -17 19 -23 -4 -6 -25 -61 -33 -83 -12 -14 14 -16 14 -12 1 3 -8 -1 -20 -8
-27 -14 -15 -44 -17 -44 -4 0 5 -7 11 -14 14 -9 4 -13 1 -10 -7 3 -7 0 -23 -6
-37 -10 -23 -10 -23 -6 -1 4 19 2 21 -9 12 -7 -6 -19 -10 -27 -9 -7 1 -21 -1
-32 -6 -17 -8 -42 12 -30 24 3 3 9 0 13 -7 6 -10 11 -10 21 3 7 8 22 15 34 15
20 0 20 1 -4 21 -17 15 -19 19 -7 15 10 -3 15 -2 12 3 -3 5 -1 12 4 16 5 3 10
13 10 23 0 68 4 81 30 84 17 3 36 -5 54 -21 l28 -25 6 22 c3 13 13 22 24 22
11 0 19 6 20 13 0 10 2 10 6 0 2 -7 11 -13 19 -13 8 0 14 -4 14 -10 0 -5 -11
-10 -24 -10 -14 0 -27 -4 -30 -8 -9 -15 12 -35 32 -30 15 4 19 2 15 -8 -3 -8
-11 -14 -18 -14 -7 0 -15 -7 -19 -15 -7 -18 2 -19 37 -2 21 9 27 20 29 52 3
34 7 41 28 44 14 1 28 8 32 14 5 9 40 25 76 36 1 1 2 -6 2 -15z m115 -44 c10
-11 14 -20 8 -20 -5 0 -10 -23 -12 -51 -3 -63 -16 -99 -36 -99 -19 0 -19 9 0
30 14 16 14 17 -7 17 -41 1 -49 3 -43 12 3 5 0 13 -6 16 -6 4 -13 -2 -16 -14
-10 -40 -23 -10 -23 55 0 48 3 64 14 64 8 0 16 -7 20 -15 3 -8 13 -15 23 -15
11 0 14 -3 7 -8 -7 -4 -8 -15 -4 -27 6 -17 9 -15 24 19 9 21 16 42 16 47 0 15
16 10 35 -11z m-846 -26 c44 -55 17 -130 -50 -140 -30 -5 -40 -2 -62 20 -35
35 -41 60 -23 95 30 58 99 70 135 25z m195 10 c31 -31 33 -87 4 -127 -8 -10
-30 -22 -51 -27 -33 -7 -41 -5 -67 20 -41 38 -43 99 -4 129 32 25 96 28 118 5z
m6246 -64 c8 -5 11 -10 6 -10 -6 0 -1 -7 10 -15 18 -13 17 -14 -14 -21 -19 -4
-36 -13 -39 -20 -3 -7 -12 -10 -21 -6 -15 5 -15 3 -4 -11 13 -15 16 -15 29 -1
9 8 23 12 34 9 11 -4 19 -2 19 5 0 6 5 8 13 3 6 -4 18 -8 26 -10 25 -3 33 -20
9 -19 -13 1 -26 6 -30 11 -5 6 -11 5 -16 -3 -5 -7 -22 -16 -38 -21 -21 -6 -28
-13 -26 -27 2 -13 -6 -8 -27 18 -30 34 -33 36 -66 25 -19 -6 -32 -13 -29 -16
6 -6 12 -7 57 -9 37 -2 25 -22 -13 -22 -16 0 -32 -4 -35 -10 -3 -5 -17 -10
-31 -10 -28 0 -30 -6 -9 -27 8 -8 13 -19 10 -24 -9 -14 -25 -11 -25 6 0 15
-16 19 -52 16 -10 -1 -18 4 -18 12 0 14 44 27 98 28 25 1 29 14 6 23 -8 3 -13
10 -9 16 4 6 -5 7 -25 4 -19 -4 -30 -2 -30 5 0 6 9 11 20 11 21 0 28 16 9 22
-22 7 3 37 32 36 31 -1 38 -12 14 -22 -21 -8 -19 -23 3 -21 34 3 62 17 62 31
0 8 -10 14 -22 14 -28 0 -55 16 -45 26 4 4 18 2 32 -4 14 -6 32 -9 40 -5 9 3
22 -2 30 -13 7 -11 17 -16 21 -11 4 4 2 7 -4 7 -7 0 -12 4 -12 9 0 4 12 6 28
3 24 -5 26 -4 13 11 -15 19 -5 22 19 7z m-978 -19 c-1 -7 1 -10 5 -8 13 8 38
-16 54 -50 15 -36 24 -41 33 -18 3 8 13 15 22 15 10 0 14 -5 10 -15 -3 -9 0
-15 8 -15 8 0 16 7 20 15 8 22 32 18 33 -6 1 -14 -3 -19 -12 -15 -8 3 -17 1
-20 -3 -3 -5 -18 -14 -34 -19 -26 -9 -29 -8 -24 6 5 14 3 15 -8 5 -7 -7 -25
-13 -40 -13 -15 0 -30 6 -32 13 -3 7 -6 6 -6 -5 -1 -9 -9 -19 -18 -22 -10 -2
-28 -7 -40 -11 -18 -5 -21 -3 -18 14 2 12 0 21 -4 21 -11 0 -8 44 4 52 6 5 5
8 -2 8 -7 0 -13 5 -13 11 0 5 5 7 11 3 6 -3 15 0 20 7 5 9 1 18 -14 26 -21 12
-21 12 -1 13 11 0 25 -5 32 -12 9 -9 12 -8 12 6 0 10 5 16 13 13 6 -2 11 -10
9 -16z m-4745 -82 c14 -14 5 -49 -13 -49 -7 0 -20 10 -28 22 -9 12 -16 18 -16
12 0 -15 31 -49 53 -57 9 -3 17 -2 17 3 0 6 7 10 16 10 9 0 14 -8 13 -17 -4
-48 2 -71 21 -76 12 -3 20 -1 19 6 -1 7 -1 31 0 53 1 38 3 42 26 40 26 -1 34
-11 13 -18 -6 -2 -12 -22 -13 -44 -3 -46 -2 -44 -19 -67 -12 -15 -18 -16 -35
-7 -16 8 -21 8 -21 -1 0 -7 -9 -9 -21 -6 -14 4 -23 -1 -30 -16 -6 -12 -28 -31
-50 -41 -22 -11 -51 -30 -65 -43 -14 -13 -30 -21 -35 -18 -5 4 -9 1 -9 -6 0
-10 -3 -10 -12 -1 -9 9 -7 16 7 32 18 20 18 20 -23 20 -31 0 -42 -4 -42 -15 0
-8 -7 -15 -16 -15 -8 0 -12 4 -9 10 4 6 -1 7 -12 4 -17 -5 -17 -4 -2 8 10 8
24 30 32 49 14 34 13 36 -10 57 -34 30 -47 28 -63 -13 -14 -36 -40 -55 -40
-30 0 17 -16 20 -25 5 -8 -12 -25 -13 -25 -1 0 4 16 15 36 22 31 12 39 23 58
73 13 33 27 61 32 63 8 3 34 -51 49 -105 9 -32 25 -17 25 23 0 21 -6 38 -17
45 -15 10 -15 11 -1 6 10 -3 18 2 21 16 8 28 27 13 27 -22 0 -30 14 -47 25
-30 3 5 1 10 -6 10 -7 0 -4 7 7 15 17 12 20 12 32 -2 9 -12 12 -13 12 -3 0 7
8 22 18 33 12 14 14 21 5 24 -18 6 37 52 63 53 11 0 25 -5 31 -11z m3997 -6
c8 3 22 0 32 -8 10 -7 24 -11 31 -8 16 6 17 -9 1 -25 -9 -9 -8 -12 5 -12 9 0
17 5 17 10 0 6 9 10 20 10 11 0 20 -7 20 -15 0 -8 4 -15 10 -15 5 0 7 7 4 15
-7 16 6 19 44 9 12 -4 22 -14 22 -24 0 -15 6 -16 40 -10 29 5 40 4 37 -4 -2
-6 -11 -10 -20 -10 -9 1 -14 -2 -11 -7 3 -5 13 -9 24 -9 17 0 28 -14 27 -35 0
-5 -10 -9 -21 -8 -17 2 -17 1 4 -8 33 -13 64 -69 39 -69 -5 0 -9 -11 -9 -24 0
-17 -7 -25 -24 -28 -14 -3 -29 -2 -33 2 -4 4 -17 4 -28 0 -17 -7 -17 -9 -2 -9
18 -1 25 -41 7 -41 -5 0 -10 -9 -10 -21 0 -14 -5 -19 -14 -16 -7 3 -25 -1 -39
-8 -14 -7 -27 -12 -29 -10 -2 2 -9 -3 -16 -11 -10 -11 -10 -14 0 -15 7 0 -5
-6 -27 -13 -25 -8 -51 -9 -69 -4 -18 4 -32 4 -36 -2 -4 -6 -18 -6 -39 0 -18 5
-36 9 -40 8 -3 0 -21 3 -39 7 -27 6 -31 11 -26 28 4 12 2 17 -4 13 -6 -3 -27
3 -49 13 -55 28 -106 46 -119 43 -7 -1 -14 7 -17 18 -3 12 -13 20 -25 20 -11
0 -22 7 -26 15 -3 8 -1 15 3 15 5 0 12 -6 14 -12 4 -10 6 -10 6 -1 1 12 -8 22
-44 48 -18 13 -18 14 -2 15 9 0 17 5 17 11 0 6 -7 9 -15 6 -20 -8 -28 8 -10
23 7 6 11 18 8 27 -5 11 -1 14 13 9 10 -3 26 -1 34 4 11 7 7 10 -19 10 -26 0
-31 3 -23 13 14 16 92 22 92 7 0 -6 5 -8 13 -3 6 4 22 6 35 4 12 -1 22 3 22 9
0 6 -4 8 -10 5 -5 -3 -10 -2 -10 3 0 14 47 35 60 27 6 -4 20 1 30 10 13 12 28
15 44 11 14 -3 28 -2 31 4 3 6 17 7 31 4 18 -5 24 -2 24 11 0 14 3 15 15 5 8
-7 21 -10 29 -7z m-4674 -65 c33 -35 60 -66 60 -70 0 -4 20 7 45 24 47 33 53
46 33 66 -17 17 -75 15 -82 -3 -3 -9 -12 -12 -21 -9 -14 6 -13 10 6 30 29 31
69 31 106 0 28 -23 51 -24 65 -2 5 7 8 4 8 -6 0 -11 -8 -18 -20 -18 -15 0 -20
-7 -20 -24 0 -14 -4 -36 -9 -50 -7 -17 -7 -26 2 -29 7 -3 3 -6 -8 -7 -60 -4
-125 -11 -161 -16 -24 -3 -44 -2 -48 4 -4 6 -22 8 -41 5 -20 -3 -41 -1 -49 6
-7 6 -20 9 -27 6 -10 -4 -15 4 -16 27 -4 61 6 93 35 110 50 32 76 24 142 -44z
m5470 -58 c0 -13 -26 -30 -35 -22 -5 4 -5 1 -1 -6 5 -9 13 -9 26 -2 13 7 21 7
25 0 4 -6 11 -8 16 -5 5 4 9 1 9 -5 0 -6 5 -8 11 -4 6 3 15 1 19 -6 4 -7 22
-13 41 -14 18 -1 35 -8 37 -15 3 -10 -2 -12 -23 -7 -15 4 -24 3 -21 -2 3 -6
-4 -12 -16 -15 -12 -4 -25 -2 -29 4 -4 7 -9 4 -13 -6 -4 -11 -13 -15 -26 -12
-11 3 -20 2 -20 -2 0 -13 -58 -17 -82 -6 -11 4 -18 3 -18 -4 0 -6 18 -14 39
-17 29 -5 41 -12 45 -28 5 -19 4 -20 -8 -3 -18 24 -26 21 -24 -8 2 -16 8 -25
20 -25 21 0 32 -16 17 -26 -8 -4 -7 -9 2 -16 11 -7 11 -11 1 -15 -6 -2 -10 -9
-6 -14 14 -23 -27 -5 -61 27 -21 19 -44 33 -51 30 -8 -3 -25 -1 -39 4 -18 7
-26 6 -32 -4 -7 -13 -32 -20 -60 -17 -22 2 -14 20 11 27 17 4 23 11 19 21 -4
9 -14 13 -28 9 -14 -4 -29 2 -43 15 -27 25 -27 24 2 24 13 0 22 -3 20 -7 -2
-4 0 -9 6 -13 5 -3 10 -2 10 3 0 14 35 21 51 11 11 -7 9 -9 -5 -9 -16 0 -18
-2 -7 -13 10 -10 16 -7 31 11 11 13 24 20 31 16 7 -4 10 -1 7 7 -3 8 -15 16
-29 17 -13 2 -32 12 -41 23 -25 25 -22 33 4 15 27 -19 41 -21 33 -3 -4 6 7 -3
23 -22 17 -18 35 -30 41 -27 16 10 13 26 -4 26 -23 0 -18 17 7 23 12 4 19 9
15 13 -4 4 4 15 19 24 14 10 26 21 27 26 5 30 57 52 57 24z m420 -165 c-10
-12 -9 -16 4 -21 10 -4 16 -18 16 -40 0 -33 1 -34 35 -31 19 1 35 4 35 8 0 11
-25 29 -42 29 -34 0 -18 15 16 16 19 0 34 -4 33 -9 -4 -18 40 -26 60 -12 17
13 16 14 -12 15 -26 1 -27 2 -12 11 10 6 23 8 30 6 7 -2 19 2 29 10 11 10 18
11 23 4 3 -6 0 -11 -7 -11 -7 0 -2 -9 11 -19 14 -10 26 -28 28 -40 3 -23 -4
-26 -26 -12 -12 8 -12 12 -2 25 11 14 11 16 -6 16 -12 0 -19 -8 -20 -20 -1
-11 2 -20 8 -20 5 0 9 -7 9 -15 0 -19 -26 -19 -34 0 -3 8 -15 15 -26 15 -25 0
-27 -17 -2 -23 9 -2 2 -4 -16 -4 -18 0 -38 -5 -44 -11 -7 -7 -21 -12 -31 -12
-15 0 -17 3 -8 13 14 18 4 27 -30 27 -25 0 -27 3 -25 34 2 19 -2 37 -8 39 -13
5 -38 -18 -29 -27 4 -3 -7 -6 -23 -6 -16 0 -24 -4 -19 -8 13 -9 13 -41 0 -44
-6 -2 -14 7 -20 19 -7 16 -18 23 -35 22 -14 -1 -37 2 -52 6 -31 8 -37 -5 -13
-25 8 -7 15 -16 15 -21 0 -17 -37 -9 -65 15 l-29 25 37 17 c27 13 34 21 26 30
-7 9 -1 15 22 23 44 15 69 14 69 -3 0 -16 18 -23 63 -25 16 0 27 4 27 13 0 7
10 18 23 24 30 14 31 14 17 -3z m-4480 -70 c6 -8 9 -19 5 -25 -4 -6 -2 -17 5
-24 20 -26 2 -62 -38 -74 -79 -24 -110 -29 -147 -23 -47 8 -55 25 -18 40 23 9
23 10 4 7 l-23 -5 21 20 c11 11 21 27 21 37 1 14 3 14 13 -3 12 -21 47 -23 47
-3 0 5 6 8 13 5 6 -3 19 -8 27 -11 11 -5 16 0 16 14 0 11 -5 20 -10 20 -5 0
-1 9 9 20 21 24 38 25 55 5z"/>
<path d="M6556 6968 c4 -7 14 -21 22 -30 14 -16 13 -18 -1 -18 -16 0 -15 -2 1
-18 9 -11 41 -44 71 -75 29 -32 57 -57 62 -57 21 0 64 -56 64 -82 -1 -24 17
-44 37 -40 11 2 18 -27 8 -33 -6 -4 -10 -2 -10 3 0 5 -18 14 -39 20 -21 7 -46
23 -55 37 -20 31 -38 32 -34 3 2 -13 16 -29 33 -38 17 -8 51 -27 78 -42 53
-31 65 -35 47 -13 -10 12 -6 18 19 33 17 10 28 22 25 25 -4 4 -2 12 4 19 17
21 52 173 52 228 0 46 -2 51 -15 40 -8 -7 -15 -20 -15 -30 0 -10 -7 -23 -15
-30 -8 -7 -15 -18 -15 -25 0 -7 -7 -18 -15 -25 -8 -6 -14 -15 -13 -18 1 -4 -4
-25 -11 -46 l-14 -40 -19 25 c-88 108 -286 287 -252 227z"/>
<path d="M5134 6557 c10 -7 35 -24 55 -39 20 -16 62 -45 94 -65 31 -21 57 -44
57 -52 0 -28 34 -151 42 -151 4 0 8 -8 9 -17 0 -12 2 -13 6 -5 3 7 -4 34 -15
60 -11 26 -22 65 -25 87 -3 22 -3 34 0 28 2 -7 10 -13 17 -13 6 0 28 -11 47
-24 20 -14 61 -34 90 -44 30 -11 63 -23 74 -27 l20 -8 -20 20 c-11 11 -24 18
-28 16 -5 -3 -28 9 -52 26 -24 17 -47 31 -52 30 -19 -3 -34 2 -29 10 7 11 -78
69 -111 77 -13 4 -23 10 -23 14 0 8 -114 69 -155 83 -19 6 -19 6 -1 -6z"/>
<path d="M4030 6440 c-14 -4 -47 -17 -73 -29 -27 -12 -52 -19 -56 -17 -14 9
-80 -32 -125 -77 -36 -37 -46 -55 -46 -80 0 -18 5 -38 10 -43 7 -7 6 -29 -1
-67 -9 -45 -9 -63 3 -92 14 -34 13 -39 -14 -92 -30 -59 -26 -83 13 -83 12 0
19 -7 19 -19 0 -11 7 -26 15 -35 8 -8 19 -37 24 -63 15 -74 19 -81 70 -98 51
-17 98 -12 143 13 22 13 32 13 52 4 33 -15 33 -26 -3 -51 -21 -16 -31 -18 -34
-9 -3 8 -9 3 -15 -12 -5 -14 -8 -26 -7 -28 9 -10 72 37 156 115 52 49 109 99
127 112 17 12 32 28 32 35 0 7 9 21 20 31 11 10 20 24 20 32 0 7 6 13 14 13
15 0 26 21 26 51 0 10 8 28 18 39 11 14 17 39 18 78 0 31 4 71 8 88 7 30 6 31
-28 29 -32 -1 -34 1 -39 37 -5 38 -38 77 -65 78 -7 0 -11 4 -8 9 3 5 -7 17
-22 27 -36 23 -98 86 -97 99 0 12 -121 17 -155 5z"/>
<path d="M4440 5696 c-63 -18 -131 -40 -150 -49 l-35 -16 53 -1 c40 0 51 -3
45 -12 -15 -24 -11 -36 13 -41 25 -4 33 8 12 16 -10 4 -10 6 0 6 7 1 15 -5 18
-13 10 -27 88 2 141 53 12 12 27 21 33 21 5 0 10 7 10 15 0 8 5 15 10 15 16 0
11 27 -6 34 -19 7 -5 10 -144 -28z"/>
<path d="M1505 3794 c-11 -9 -39 -25 -62 -35 -23 -11 -56 -32 -74 -46 l-32
-27 5 52 c3 28 1 49 -4 46 -4 -3 -8 -23 -8 -45 0 -38 -13 -52 -23 -26 -4 9 -6
9 -6 -1 -1 -7 6 -15 14 -18 11 -5 15 -22 15 -63 0 -70 12 -114 46 -162 35 -50
55 -87 106 -191 28 -57 49 -88 60 -88 9 0 25 -3 35 -7 15 -6 13 -9 -12 -14
l-30 -7 36 -1 c20 -1 44 -10 57 -21 22 -21 27 -16 16 14 -3 9 -10 13 -15 10
-5 -3 -12 2 -15 10 -3 9 -14 16 -24 16 -10 0 -31 13 -46 30 -38 40 -115 191
-108 212 4 13 1 16 -9 12 -11 -4 -19 5 -28 30 -7 19 -16 33 -20 30 -16 -9 -30
39 -32 108 l-2 72 83 51 c73 46 114 76 102 75 -3 0 -14 -8 -25 -16z"/>
</g>
</svg>
